<!DOCTYPE svg PUBLIC "-//W3C//DTD SVG 20010904//EN" "http://www.w3.org/TR/2001/REC-SVG-20010904/DTD/svg10.dtd">
<svg version="1.0" xmlns="http://www.w3.org/2000/svg" width="808px" height="752px" viewBox="0 0 8080 7520" preserveAspectRatio="xMidYMid meet">
<g id="layer101" fill="#000000" stroke="none">
<path d="M4008 7512 c-1 -4 -39 -33 -83 -63 -90 -63 -130 -90 -730 -499 -556 -379 -634 -437 -791 -594 -323 -323 -545 -722 -645 -1161 -54 -237 -52 -165 -56 -1532 l-4 -1273 123 -59 c144 -69 327 -143 486 -195 61 -21 112 -42 112 -47 0 -8 -46 -77 -220 -331 -14 -21 -28 -37 -32 -38 -3 0 -12 17 -18 38 -19 58 -85 165 -134 216 -125 128 -291 189 -686 251 -310 49 -453 89 -568 159 -128 78 -203 169 -259 316 -18 47 -32 80 -33 74 0 -7 5 -58 10 -115 20 -198 87 -386 180 -507 22 -29 40 -57 40 -62 0 -15 -128 -12 -216 5 -131 25 -267 102 -311 175 -27 47 -33 35 -13 -29 54 -181 179 -316 359 -392 100 -42 203 -66 466 -109 438 -72 573 -124 711 -273 53 -57 134 -201 134 -238 0 -25 -64 -109 -83 -109 -10 0 -32 -13 -48 -29 -23 -23 -29 -38 -29 -73 -1 -50 -28 -89 -59 -86 -18 3 -32 -24 -111 -206 -49 -115 -90 -211 -90 -215 0 -3 75 67 167 157 152 148 166 164 155 182 -17 28 9 66 64 92 32 15 46 28 54 54 7 19 9 42 6 50 -4 10 48 94 137 225 78 115 187 275 242 357 180 265 296 432 300 432 3 0 85 -20 182 -44 430 -108 803 -156 1258 -161 503 -6 919 43 1365 161 74 20 144 38 155 40 17 4 76 -78 355 -488 294 -433 335 -498 340 -540 7 -54 30 -84 69 -93 36 -8 68 -60 50 -81 -11 -13 13 -41 161 -187 95 -95 170 -165 167 -157 -3 8 -44 104 -91 212 -47 108 -86 202 -86 208 0 7 -10 9 -28 6 -23 -6 -30 -2 -45 23 -9 16 -17 47 -17 69 0 33 -6 45 -31 66 -17 14 -37 26 -45 26 -7 0 -30 24 -49 54 l-36 54 24 60 c56 137 151 240 284 310 126 66 234 92 633 157 91 15 203 38 250 51 234 67 389 194 464 380 45 114 43 119 -27 50 -98 -99 -212 -143 -394 -153 -57 -3 -103 -3 -103 0 0 3 26 45 58 94 69 103 105 182 132 288 21 83 40 218 39 275 0 34 -1 34 -19 -17 -58 -165 -168 -292 -311 -362 -135 -66 -242 -92 -619 -151 -300 -47 -465 -113 -586 -234 -65 -65 -120 -153 -149 -241 -6 -19 -7 -19 -27 5 -27 33 -238 343 -238 350 0 3 55 25 123 49 235 83 583 232 599 256 12 16 9 2243 -3 2417 -42 612 -290 1146 -730 1573 -141 137 -192 177 -484 376 -115 79 -270 184 -342 234 -227 154 -301 206 -518 353 -115 79 -217 150 -226 158 -18 16 -26 18 -31 6z"/>
<path d="M3141 1482 c-37 -113 -141 -315 -216 -414 -36 -47 -104 -123 -152 -167 -47 -45 -83 -84 -79 -88 12 -13 153 14 210 40 31 14 80 49 110 77 l54 51 49 -17 c57 -20 105 -14 154 19 47 32 46 44 -6 51 -55 9 -105 48 -105 82 0 33 25 79 52 98 12 9 42 16 65 16 33 0 50 -7 77 -30 44 -39 60 -86 60 -175 0 -72 -14 -115 -39 -115 -21 0 -45 -40 -45 -76 0 -23 8 -39 26 -53 36 -28 70 -26 100 5 26 25 29 61 10 106 -10 22 72 106 135 139 66 35 168 33 230 -3 92 -54 133 -126 127 -223 -3 -55 -8 -57 -66 -33 -29 11 -37 10 -70 -7 -51 -27 -78 -83 -63 -128 19 -58 54 -82 116 -81 53 2 53 1 44 -23 -15 -41 -10 -130 12 -196 20 -59 87 -187 99 -187 3 0 10 10 16 23 6 12 25 50 43 84 17 34 39 94 47 133 13 63 13 87 -3 143 -4 14 2 17 34 17 107 0 161 120 87 193 -34 34 -73 42 -119 22 -21 -8 -41 -13 -44 -9 -3 3 -6 33 -5 67 0 76 27 132 83 176 113 90 242 77 362 -36 47 -44 61 -75 39 -88 -35 -21 13 -115 59 -115 88 0 117 105 42 148 -36 20 -41 36 -41 127 0 86 25 146 72 175 61 37 136 21 163 -35 20 -44 19 -81 -4 -104 -19 -19 -79 -41 -113 -41 -29 0 -21 -18 21 -45 52 -35 99 -41 158 -20 l48 17 53 -51 c30 -28 77 -62 107 -76 61 -28 182 -52 211 -41 17 7 16 9 -11 28 -53 37 -188 182 -243 261 -69 100 -153 266 -187 372 l-28 85 -856 0 -856 0 -24 -78z"/>
</g>
<g id="layer102" fill="#04162b" stroke="none">
<path d="M3480 5682 c0 -10 7 -69 16 -132 15 -112 17 -115 59 -162 38 -42 75 -118 75 -154 0 -7 -23 -13 -65 -16 -88 -5 -111 -25 -156 -129 -20 -46 -43 -85 -52 -87 -29 -6 -98 -203 -122 -348 -17 -105 -19 -191 -5 -265 12 -65 23 -78 47 -57 10 8 23 18 30 22 7 4 100 -109 244 -294 127 -165 233 -299 235 -297 2 2 10 41 18 86 8 46 17 85 20 88 3 3 27 -3 53 -15 79 -33 153 -45 254 -40 81 4 104 9 164 38 224 107 325 381 246 666 -21 75 -77 183 -117 225 -16 16 -24 37 -24 60 0 19 -4 49 -9 67 -10 33 -8 35 85 126 51 51 94 97 94 103 0 6 -21 14 -47 17 -84 12 -265 63 -363 101 -220 87 -430 212 -607 362 -34 29 -65 53 -68 53 -3 0 -5 -8 -5 -18z m30 -1262 c0 -5 8 -10 18 -11 18 -1 -119 -27 -150 -28 -31 -2 -20 16 20 32 42 18 112 22 112 7z"/>
<path d="M4800 3533 c0 -5 5 -15 10 -23 9 -13 11 -13 21 0 9 13 10 12 5 -3 -3 -10 -6 -22 -6 -27 0 -4 -15 -17 -34 -28 -45 -26 -68 -70 -58 -108 5 -16 6 -42 2 -59 -4 -24 0 -35 20 -54 48 -45 105 -53 156 -22 35 21 50 57 28 65 -8 3 -24 -6 -36 -19 -31 -36 -89 -35 -117 1 -40 51 -18 157 34 170 38 9 74 -4 87 -31 14 -30 48 -34 48 -5 0 11 5 20 12 20 6 0 8 -3 5 -7 -4 -3 1 -12 10 -18 9 -7 31 -50 48 -96 27 -71 36 -84 57 -87 22 -3 28 7 75 122 28 69 48 127 45 130 -14 15 -33 3 -49 -31 -18 -37 -20 -38 -72 -38 -53 0 -54 1 -66 35 -9 26 -18 36 -37 38 -17 2 -25 -2 -24 -10 2 -20 -9 -19 -59 3 -41 18 -44 22 -30 35 20 20 19 31 -4 44 -23 12 -71 14 -71 3z m321 -208 c-1 -11 -9 -33 -16 -50 l-13 -30 -16 37 c-25 57 -22 70 17 66 26 -2 31 -7 28 -23z"/>
<path d="M3170 3330 l0 -131 95 3 c116 4 132 22 22 26 l-78 3 3 37 3 37 68 -2 c61 -2 67 -1 67 17 0 18 -7 20 -71 20 l-70 0 3 43 3 42 80 0 c64 0 80 3 80 15 0 12 -19 16 -102 18 l-103 3 0 -131z"/>
<path d="M3967 3454 c-4 -4 -7 -63 -7 -131 l0 -123 88 0 c99 0 119 9 128 58 6 27 2 36 -23 59 l-29 27 30 47 c17 26 36 47 41 45 6 -1 30 -55 55 -120 41 -107 47 -117 69 -114 20 3 31 21 72 122 27 65 49 123 49 127 0 5 -8 9 -18 9 -13 0 -24 -13 -35 -40 -15 -39 -16 -40 -67 -40 -51 0 -52 1 -67 40 -15 38 -18 40 -58 40 -40 0 -44 -3 -78 -54 -30 -45 -41 -54 -71 -58 -41 -5 -50 8 -44 70 2 27 -1 38 -13 40 -8 1 -18 0 -22 -4z m356 -111 c-18 -7 -16 -23 2 -23 8 0 15 6 16 13 0 8 2 9 5 0 3 -6 -2 -28 -12 -50 l-16 -38 -18 40 c-23 51 -24 53 -2 58 23 6 40 7 25 0z m-199 -49 c38 -37 10 -64 -66 -64 l-58 0 0 33 c0 19 3 37 7 40 13 14 101 7 117 -9z"/>
<path d="M4467 3453 c-9 -8 -9 -112 -1 -192 10 -87 27 -82 105 32 l64 92 3 -39 c2 -21 -1 -50 -7 -65 -14 -34 0 -85 24 -89 9 -2 21 2 26 9 10 16 0 241 -11 253 -17 17 -40 -4 -102 -96 l-63 -93 -3 98 c-2 71 -6 97 -16 97 -7 0 -16 -3 -19 -7z"/>
<path d="M4721 3313 c-1 -24 1 -43 3 -43 8 0 12 48 5 66 -5 13 -8 7 -8 -23z"/>
<path d="M2611 3056 c-11 -13 -6 -22 28 -54 l41 -39 0 -166 c0 -92 3 -167 8 -167 9 0 42 57 42 74 0 6 9 12 20 12 23 0 25 7 -33 -141 -40 -100 -47 -112 -80 -128 -41 -19 -47 -41 -18 -57 11 -5 78 -10 150 -10 153 0 137 -12 197 145 21 55 41 104 45 109 9 10 26 -20 34 -60 3 -16 7 -34 9 -41 1 -7 5 -16 9 -19 4 -4 7 33 7 83 0 84 -4 102 -61 269 -62 181 -80 217 -99 198 -6 -6 -33 -68 -60 -138 -27 -71 -57 -137 -67 -148 -17 -18 -18 -19 -24 -1 -12 28 -10 172 1 194 6 10 24 26 41 34 22 12 29 22 27 38 -3 21 -9 22 -104 25 -80 2 -104 0 -113 -12z"/>
<path d="M4840 3050 c-9 -17 -5 -23 30 -45 21 -14 46 -37 53 -52 8 -16 39 -109 70 -208 30 -99 60 -191 65 -205 l10 -25 11 28 c6 16 11 35 11 44 0 12 3 13 13 4 8 -6 17 -8 20 -4 4 3 7 1 7 -6 0 -8 -7 -11 -15 -7 -17 6 -20 -5 -5 -20 6 -6 4 -29 -5 -66 -11 -40 -12 -64 -5 -82 9 -26 10 -26 120 -26 128 0 114 -13 154 140 118 453 134 500 168 500 15 0 8 38 -8 44 -9 3 -82 6 -164 6 -82 0 -155 -3 -164 -6 -22 -9 -20 -41 4 -54 23 -12 24 -20 9 -73 l-10 -38 -62 1 c-87 2 -87 2 -87 -21 0 -20 -2 -20 -22 -7 -13 9 -28 34 -35 57 -13 45 -12 46 47 90 21 16 22 21 11 35 -11 13 -33 16 -112 16 -88 0 -99 -2 -109 -20z m298 -211 c35 2 52 -1 52 -9 0 -7 -12 -59 -27 -116 -21 -77 -32 -104 -42 -102 -9 2 -29 43 -49 98 -27 76 -31 99 -23 118 7 15 15 20 24 15 6 -4 36 -6 65 -4z"/>
<path d="M4034 2555 c-22 -47 -67 -83 -120 -97 -36 -10 -44 -16 -44 -35 0 -13 -6 -23 -12 -23 -7 0 -4 -6 7 -13 15 -10 48 -12 125 -8 l105 6 3 103 3 102 -25 0 c-19 0 -29 -9 -42 -35z"/>
<path d="M2881 1976 c2 -2 22 -6 44 -9 28 -5 34 -4 20 3 -19 8 -73 14 -64 6z"/>
</g>
<g id="layer103" fill="#2f2f2f" stroke="none">
<path d="M4190 7396 c0 -3 20 -19 45 -36 25 -17 45 -29 45 -26 0 3 -20 19 -45 36 -25 17 -45 29 -45 26z"/>
<path d="M3370 6248 c-55 -28 -99 -56 -97 -61 5 -16 149 -76 183 -77 17 0 51 11 75 23 24 13 50 22 58 19 8 -3 11 0 7 6 -4 6 2 8 14 5 11 -3 20 0 20 6 0 6 6 11 14 11 8 0 27 5 42 10 l28 11 -75 49 c-102 68 -133 68 -269 -2z"/>
<path d="M4412 6275 c-62 -35 -102 -65 -102 -75 0 -5 16 -12 35 -16 19 -3 35 -11 35 -16 0 -6 7 -8 15 -4 8 3 15 1 15 -5 0 -6 4 -8 9 -5 4 3 28 -4 52 -16 63 -32 119 -29 208 12 86 39 87 36 -51 106 -104 52 -151 57 -216 19z"/>
<path d="M3661 6156 c-14 -8 -31 -12 -38 -9 -7 3 -13 0 -13 -6 0 -6 -3 -10 -7 -9 -5 1 -33 -10 -63 -24 -58 -26 -82 -53 -94 -103 -9 -42 -18 -135 -13 -135 18 0 197 93 214 112 19 21 63 141 63 174 0 17 -18 17 -49 0z"/>
<path d="M4300 6164 c0 -32 54 -174 72 -191 18 -16 198 -103 214 -103 3 0 2 10 -1 23 -3 12 -7 44 -10 71 -6 68 -32 107 -90 136 -28 14 -51 28 -53 32 -2 4 -10 4 -18 1 -8 -3 -14 0 -14 7 0 6 -5 8 -11 4 -6 -3 -14 -2 -18 3 -8 13 -71 27 -71 17z"/>
<path d="M3128 6101 c-40 -27 -88 -63 -107 -78 l-34 -29 80 -22 c44 -12 89 -22 99 -22 20 0 106 39 115 53 4 5 10 4 14 -3 4 -6 5 -12 4 -14 -2 -1 -21 -13 -42 -25 -59 -36 -80 -95 -68 -194 l6 -47 90 60 c49 32 94 70 101 82 15 29 39 176 30 185 -3 4 -20 -4 -38 -17 -17 -12 -28 -16 -24 -9 4 8 0 5 -8 -5 -9 -11 -16 -16 -16 -10 0 5 -4 3 -9 -5 -5 -8 -11 -9 -15 -3 -5 9 36 44 50 41 4 0 10 3 13 9 3 5 15 14 26 20 18 10 12 15 -57 46 -42 20 -90 36 -107 36 -19 0 -56 -18 -103 -49z"/>
<path d="M4720 6138 c-19 -7 -37 -15 -40 -18 -3 -3 -20 -12 -37 -19 -40 -16 -40 -20 -6 -45 17 -13 24 -14 19 -5 -4 8 1 3 12 -10 13 -16 24 -21 33 -16 8 5 11 5 7 0 -4 -4 0 -13 9 -20 11 -8 13 -14 5 -19 -7 -4 -12 -2 -12 4 0 6 -4 8 -10 5 -5 -3 -10 -1 -10 4 0 6 -3 10 -7 10 -19 -3 -36 2 -30 8 4 4 -7 13 -24 20 -18 7 -34 11 -37 8 -3 -3 0 -29 6 -57 6 -29 14 -69 17 -89 3 -21 16 -46 33 -61 30 -28 164 -118 175 -118 10 0 8 95 -2 150 -9 42 -47 90 -82 102 -7 2 -9 9 -5 16 5 9 15 7 37 -8 40 -29 89 -35 145 -17 27 8 62 18 78 22 27 6 27 7 12 24 -9 10 -52 44 -96 76 -86 62 -127 73 -190 53z"/>
<path d="M2944 5946 c-29 -13 -184 -161 -184 -177 0 -3 36 -10 79 -13 91 -8 129 3 175 52 16 17 33 29 37 26 4 -2 13 5 19 16 6 11 15 20 20 20 14 0 53 40 46 47 -6 7 -136 43 -151 43 -5 -1 -24 -7 -41 -14z"/>
<path d="M4941 5940 c-74 -22 -82 -28 -58 -41 9 -6 27 -20 39 -32 11 -12 17 -15 13 -7 -5 8 17 -9 48 -38 31 -28 68 -57 83 -63 33 -12 184 -1 184 13 0 12 -115 133 -150 158 -40 28 -88 31 -159 10z"/>
<path d="M3122 5865 c-16 -14 -33 -25 -36 -25 -20 0 -108 -99 -116 -131 -9 -32 0 -163 12 -174 2 -2 40 32 85 76 73 71 83 85 93 132 9 45 7 134 -4 144 -2 2 -17 -8 -34 -22z"/>
<path d="M4853 5823 c-2 -110 8 -133 94 -212 42 -39 80 -71 83 -71 10 0 21 157 12 179 -11 30 -65 85 -125 129 -31 23 -58 42 -60 42 -2 0 -4 -30 -4 -67z"/>
<path d="M2720 5716 c-25 -14 -132 -154 -146 -189 -5 -14 0 -17 37 -17 72 1 126 16 159 43 17 15 30 29 30 32 0 3 17 21 37 40 20 19 34 35 30 35 -5 0 5 11 20 24 15 13 25 28 21 32 -16 15 -162 15 -188 0z"/>
<path d="M5123 5723 c-31 -6 -29 -16 12 -47 19 -15 34 -30 32 -34 -1 -4 20 -30 47 -59 41 -44 57 -54 102 -63 29 -6 71 -10 94 -8 l41 3 -57 83 c-81 119 -100 132 -182 131 -37 -1 -77 -4 -89 -6z"/>
<path d="M2859 5617 c-36 -40 -71 -82 -77 -94 -13 -24 -13 -123 0 -123 4 0 8 -10 9 -22 2 -62 13 -61 67 7 88 109 95 126 90 204 -8 109 -13 111 -89 28z"/>
<path d="M5079 5673 c0 -10 -3 -29 -5 -43 -4 -28 -6 -72 -5 -111 1 -27 130 -201 143 -193 5 3 8 18 8 35 0 16 5 29 11 29 6 0 8 9 4 20 -3 11 -2 20 3 20 15 0 -3 96 -23 121 -50 62 -120 139 -127 139 -4 0 -8 -8 -9 -17z"/>
<path d="M2593 5480 c-57 -13 -78 -36 -131 -141 -28 -56 -50 -104 -48 -106 5 -5 120 23 143 35 11 6 25 18 33 26 7 9 18 16 26 16 10 0 11 -6 2 -30 -5 -17 -7 -43 -4 -58 4 -15 8 -34 10 -42 2 -8 11 -34 21 -58 l18 -43 54 96 c53 93 55 99 50 153 -5 57 -10 85 -23 124 -6 20 -7 19 -29 -8 -12 -16 -22 -33 -21 -37 0 -5 -7 -13 -17 -18 -9 -6 -15 -14 -12 -19 3 -4 -2 -11 -11 -14 -8 -3 -13 -10 -10 -15 3 -5 -1 -12 -10 -15 -25 -10 -26 -7 -4 16 19 21 24 33 21 51 -1 5 2 6 6 4 5 -3 21 17 36 44 l27 49 -48 -1 c-26 -1 -62 -4 -79 -9z"/>
<path d="M5300 5485 c0 -14 25 -55 33 -55 6 0 7 -3 4 -7 -4 -3 -2 -12 4 -19 7 -8 6 -14 -2 -20 -8 -4 -9 -3 -5 4 4 7 3 12 -2 12 -6 0 -20 17 -32 37 l-22 38 -13 -40 c-8 -21 -12 -42 -9 -47 3 -4 1 -8 -4 -8 -5 0 -10 -23 -11 -51 -1 -44 5 -64 49 -145 28 -52 55 -94 59 -94 13 0 43 89 48 142 4 38 0 55 -18 85 -27 44 -31 60 -17 70 7 3 8 1 4 -5 -4 -7 -2 -12 4 -12 6 0 8 -4 5 -10 -3 -5 -1 -10 6 -10 7 0 10 -3 6 -6 -3 -4 9 -22 27 -41 25 -27 49 -39 105 -54 41 -11 76 -18 78 -15 8 8 -86 188 -111 214 -13 13 -40 27 -62 32 -41 10 -124 13 -124 5z"/>
<path d="M2477 5216 c-72 -20 -100 -53 -136 -161 -43 -129 -43 -129 27 -99 68 31 109 67 117 105 4 18 13 29 23 29 14 0 15 2 2 10 -8 5 -12 11 -9 14 10 11 29 -11 23 -27 -3 -9 -9 -15 -13 -13 -8 6 -12 -20 -13 -84 0 -63 3 -80 14 -80 5 0 6 -4 3 -10 -3 -5 -2 -10 3 -10 5 0 15 -13 22 -30 7 -16 15 -30 19 -30 8 0 81 200 81 222 0 10 -8 40 -19 67 -10 28 -16 52 -13 55 3 4 0 6 -6 6 -7 0 -12 7 -12 15 0 24 -19 17 -26 -10 -6 -25 -15 -31 -27 -19 -3 4 0 16 8 28 29 40 15 44 -68 22z m68 -66 c3 -5 1 -10 -5 -10 -6 0 -8 -4 -5 -10 3 -5 2 -10 -4 -10 -5 0 -13 5 -16 10 -3 6 -1 10 5 10 6 0 8 5 5 10 -3 6 -2 10 4 10 5 0 13 -4 16 -10z"/>
<path d="M5470 5190 c11 -22 16 -40 10 -40 -5 0 -18 17 -29 38 -17 33 -20 35 -27 17 -4 -11 -15 -42 -26 -68 -10 -26 -18 -64 -18 -85 0 -32 57 -202 73 -218 3 -3 19 21 36 55 33 64 42 146 19 169 -9 9 -8 12 5 12 9 0 17 -6 17 -14 0 -28 44 -68 108 -96 36 -17 67 -28 69 -26 8 7 -58 194 -80 227 -17 25 -36 38 -77 51 -30 9 -65 17 -78 17 l-22 1 20 -40z"/>
<path d="M2372 4928 c-55 -25 -66 -35 -82 -71 -18 -41 -54 -226 -46 -234 9 -9 123 78 134 102 16 34 32 32 32 -5 0 -34 19 -82 37 -93 14 -9 9 -27 -7 -27 -5 0 -17 15 -26 33 l-17 32 -11 -32 c-16 -47 -29 -53 -21 -10 9 46 0 47 -57 4 -66 -50 -78 -82 -78 -215 l0 -114 28 24 c47 38 82 90 88 130 4 21 11 35 15 32 5 -3 7 -9 4 -14 -11 -18 15 -87 45 -118 17 -18 27 -32 23 -32 -4 0 3 -7 15 -16 13 -9 25 -14 27 -12 2 2 5 56 7 120 3 107 1 118 -19 147 -27 36 -12 54 16 20 l19 -23 12 59 c6 33 16 76 21 95 15 58 10 92 -21 157 -34 70 -45 80 -56 55 -6 -14 -8 -13 -13 9 l-6 25 -63 -28z m40 -153 c0 -5 -5 -11 -11 -13 -6 -2 -11 4 -11 13 0 9 5 15 11 13 6 -2 11 -8 11 -13z"/>
<path d="M5575 4933 c4 -10 9 -34 11 -53 3 -32 2 -30 -13 13 -9 26 -20 47 -25 47 -12 0 -78 -140 -77 -165 0 -11 10 -64 23 -118 l22 -98 20 23 c48 53 68 101 69 159 0 32 3 55 8 52 4 -2 7 -15 7 -27 0 -13 9 -35 20 -49 21 -27 122 -99 128 -92 8 8 -30 202 -46 235 -26 54 -167 124 -147 73z"/>
<path d="M5642 4641 c2 -17 1 -31 -4 -31 -4 0 -8 8 -8 18 0 39 -16 30 -57 -34 -39 -61 -43 -73 -43 -129 0 -34 3 -90 7 -125 l6 -62 39 43 c48 54 66 92 66 143 0 21 5 43 11 49 8 8 11 -2 11 -36 0 -58 15 -90 68 -141 39 -37 40 -38 47 -15 9 27 -2 192 -16 236 -6 20 -28 44 -57 66 -77 54 -75 54 -70 18z m8 -66 c0 -14 -2 -25 -4 -25 -2 0 -6 11 -8 25 -3 14 -1 25 3 25 5 0 9 -11 9 -25z"/>
<path d="M2286 4314 c-44 -53 -46 -59 -46 -118 0 -57 15 -174 25 -205 12 -32 85 100 87 157 1 46 -10 214 -15 219 -2 2 -25 -22 -51 -53z"/>
<path d="M5670 4353 c0 -12 -3 -30 -7 -40 -6 -14 -9 -11 -13 16 l-5 33 -51 -61 c-47 -54 -53 -67 -58 -121 -3 -33 -9 -88 -12 -122 l-6 -61 50 42 c56 47 82 99 82 161 0 22 3 40 8 40 4 0 7 -33 7 -73 0 -65 3 -78 35 -129 19 -32 38 -58 41 -58 15 0 41 212 33 258 -8 43 -103 149 -104 115z"/>
<path d="M2320 4008 c-21 -38 -30 -66 -30 -98 0 -42 52 -225 69 -243 11 -11 53 129 50 168 -2 19 0 37 4 41 4 4 7 0 7 -10 0 -32 30 -74 79 -110 57 -42 66 -44 57 -13 -4 12 -18 65 -32 117 -23 87 -29 99 -77 148 -28 28 -55 52 -60 52 -5 0 -6 -13 -2 -30 4 -19 3 -30 -4 -30 -6 0 -11 11 -11 24 0 44 -19 38 -50 -16z"/>
<path d="M5572 4012 c-53 -46 -54 -49 -86 -167 -18 -66 -32 -122 -30 -124 7 -8 100 68 119 97 26 41 35 40 35 -6 0 -37 25 -129 40 -145 7 -9 67 166 77 226 4 28 -1 49 -22 92 -33 64 -55 88 -55 59 0 -11 -7 -28 -15 -38 -18 -23 -18 -21 -6 22 5 17 7 32 3 32 -4 0 -31 -22 -60 -48z"/>
<path d="M2428 3748 c-9 -7 -24 -36 -33 -64 -21 -65 -12 -101 58 -239 l51 -100 9 69 c6 44 6 85 0 112 -10 43 0 63 12 24 8 -24 55 -65 108 -91 48 -25 48 -30 -15 115 -38 88 -49 104 -98 143 -60 47 -68 49 -92 31z"/>
<path d="M3170 3330 l0 -131 95 3 c116 4 132 22 22 26 l-78 3 3 37 3 37 68 3 c51 2 67 6 67 17 0 12 -15 15 -71 15 l-70 0 3 43 3 42 83 3 c60 2 82 6 79 15 -2 8 -37 13 -105 15 l-102 3 0 -131z"/>
<path d="M4383 7263 c3 -5 65 -50 137 -99 148 -101 188 -127 145 -93 -48 39 -288 202 -282 192z"/>
<path d="M3581 7215 c-35 -24 -69 -49 -75 -56 -6 -6 24 12 67 40 42 28 77 54 77 56 0 7 0 7 -69 -40z"/>
<path d="M3106 6890 c-192 -131 -354 -244 -360 -251 -11 -13 164 105 512 343 171 118 216 151 200 147 -2 0 -160 -108 -352 -239z"/>
<path d="M4706 7041 c5 -6 152 -108 325 -226 172 -118 359 -251 414 -294 95 -75 252 -229 359 -351 27 -31 21 -21 -14 22 -79 98 -283 296 -380 369 -110 82 -722 500 -704 480z"/>
<path d="M2625 6553 c-55 -42 -149 -126 -210 -186 l-110 -110 105 99 c58 54 145 131 194 169 123 97 132 104 126 105 -3 0 -50 -35 -105 -77z"/>
<path d="M2274 6218 c-44 -49 -68 -78 -62 -78 2 0 26 25 52 55 51 60 58 75 10 23z"/>
<path d="M5870 6080 c12 -16 24 -30 26 -30 3 0 -4 14 -16 30 -12 17 -24 30 -26 30 -3 0 4 -13 16 -30z"/>
<path d="M5925 6003 c15 -24 30 -43 32 -43 7 0 -31 61 -46 73 -8 7 -2 -7 14 -30z"/>
<path d="M6015 5860 c9 -16 18 -30 21 -30 2 0 -2 14 -11 30 -9 17 -18 30 -21 30 -2 0 2 -13 11 -30z"/>
<path d="M1975 5780 c-9 -16 -13 -30 -11 -30 3 0 12 14 21 30 9 17 13 30 11 30 -3 0 -12 -13 -21 -30z"/>
<path d="M1917 5665 c-24 -50 -20 -58 4 -12 11 22 19 41 17 43 -3 2 -12 -12 -21 -31z"/>
<path d="M1811 5398 c0 -9 -4 -25 -7 -35 -5 -17 -5 -17 6 0 6 10 9 25 7 35 -4 15 -5 15 -6 0z"/>
<path d="M6260 5264 c0 -10 5 -26 10 -34 8 -11 9 -7 4 15 -8 37 -14 45 -14 19z"/>
<path d="M1732 5060 c0 -19 2 -27 5 -17 2 9 2 25 0 35 -3 9 -5 1 -5 -18z"/>
<path d="M6323 4940 c0 -25 2 -35 4 -22 2 12 2 32 0 45 -2 12 -4 2 -4 -23z"/>
<path d="M1713 4910 c0 -25 2 -35 4 -22 2 12 2 32 0 45 -2 12 -4 2 -4 -23z"/>
<path d="M6342 3563 l-2 -1163 -67 -35 c-77 -40 -73 -42 10 -5 36 16 59 32 62 45 3 11 4 538 3 1170 l-3 1150 -3 -1162z"/>
<path d="M7552 2730 c-47 -155 -168 -298 -313 -369 -135 -66 -242 -92 -619 -151 -300 -47 -465 -113 -586 -234 -65 -65 -121 -156 -148 -240 -6 -18 -7 -18 -29 0 -21 19 -21 19 -7 0 8 -11 15 -39 15 -63 0 -39 15 -64 160 -278 88 -129 163 -235 167 -235 5 0 8 6 8 14 0 33 20 24 45 -19 16 -26 34 -45 45 -45 25 0 68 -37 73 -63 4 -22 4 -22 6 0 1 23 -50 73 -75 73 -7 0 -30 24 -49 54 l-36 54 24 60 c56 137 151 240 284 310 126 66 234 92 633 157 91 15 203 38 250 51 234 67 389 194 464 380 45 114 43 119 -27 50 -98 -99 -212 -143 -394 -153 -57 -3 -103 -3 -103 0 0 3 26 45 58 94 69 103 105 182 132 290 36 139 55 375 22 263z"/>
<path d="M6048 2267 c-65 -28 -116 -53 -114 -55 5 -4 246 98 246 104 0 8 -16 2 -132 -49z"/>
<path d="M1955 2270 c33 -16 65 -29 70 -29 13 1 -107 57 -120 57 -5 0 17 -13 50 -28z"/>
<path d="M2079 2219 c24 -11 46 -18 48 -15 4 4 -73 36 -85 35 -4 0 13 -9 37 -20z"/>
<path d="M5875 2195 c-25 -12 -26 -14 -5 -9 28 7 60 23 45 23 -5 0 -23 -6 -40 -14z"/>
<path d="M2140 2197 c0 -7 122 -48 127 -43 3 2 -20 12 -49 21 -29 10 -59 20 -65 23 -7 2 -13 2 -13 -1z"/>
<path d="M5795 2165 c-25 -12 -26 -14 -5 -9 28 7 60 23 45 23 -5 0 -23 -6 -40 -14z"/>
<path d="M5672 2123 c-24 -8 -41 -17 -39 -19 4 -5 97 26 97 32 0 6 -11 4 -58 -13z"/>
<path d="M2410 2100 c13 -8 13 -13 2 -32 -12 -22 -12 -22 8 1 16 19 18 26 8 32 -7 5 -17 9 -23 9 -5 0 -3 -5 5 -10z"/>
<path d="M5610 2093 c0 -6 9 -21 21 -34 l20 -24 -17 30 c-24 39 -24 40 -24 28z"/>
<path d="M2580 2050 c34 -11 60 -11 35 0 -11 5 -29 8 -40 8 -16 0 -15 -2 5 -8z"/>
<path d="M5365 2030 c-25 -11 1 -11 35 0 20 6 21 8 5 8 -11 0 -29 -3 -40 -8z"/>
<path d="M2460 1970 c-22 -33 -38 -60 -36 -60 3 0 24 27 46 60 22 33 38 60 36 60 -3 0 -24 -27 -46 -60z"/>
<path d="M5285 2010 c-25 -11 1 -11 35 0 20 6 21 8 5 8 -11 0 -29 -3 -40 -8z"/>
<path d="M5205 1990 c-25 -11 1 -11 35 0 20 6 21 8 5 8 -11 0 -29 -3 -40 -8z"/>
<path d="M5720 1925 c28 -41 53 -75 56 -75 2 0 -18 34 -46 75 -28 41 -53 75 -56 75 -2 0 18 -34 46 -75z"/>
<path d="M2881 1976 c2 -2 20 -6 39 -10 25 -4 31 -3 20 4 -14 9 -69 15 -59 6z"/>
<path d="M3368 1893 c12 -2 30 -2 40 0 9 3 -1 5 -23 4 -22 0 -30 -2 -17 -4z"/>
<path d="M4678 1893 c12 -2 30 -2 40 0 9 3 -1 5 -23 4 -22 0 -30 -2 -17 -4z"/>
<path d="M3553 1873 c15 -2 37 -2 50 0 12 2 0 4 -28 4 -27 0 -38 -2 -22 -4z"/>
<path d="M4473 1873 c15 -2 39 -2 55 0 15 2 2 4 -28 4 -30 0 -43 -2 -27 -4z"/>
<path d="M2200 1760 c-12 -16 -19 -30 -16 -30 2 0 14 14 26 30 12 17 19 30 16 30 -2 0 -14 -13 -26 -30z"/>
<path d="M5750 1710 c12 -16 24 -30 26 -30 3 0 -4 14 -16 30 -12 17 -24 30 -26 30 -3 0 4 -13 16 -30z"/>
<path d="M4880 1524 c0 -10 5 -26 10 -34 8 -11 9 -7 4 15 -8 37 -14 45 -14 19z"/>
<path d="M2140 1500 c-12 -16 -19 -30 -16 -30 2 0 14 14 26 30 12 17 19 30 16 30 -2 0 -14 -13 -26 -30z"/>
<path d="M3131 1453 c-40 -112 -137 -292 -206 -385 -36 -47 -103 -122 -150 -166 -47 -43 -85 -82 -85 -86 0 -3 19 -5 43 -5 l42 2 -40 6 c-36 6 -38 7 -20 18 37 21 178 171 235 251 31 44 78 120 103 169 50 98 109 241 105 254 -2 5 -14 -21 -27 -58z"/>
<path d="M4959 1317 c42 -110 157 -273 277 -394 l102 -102 -36 -4 -37 -4 42 -1 c23 -1 44 2 47 7 3 5 -13 21 -35 37 -94 65 -236 243 -319 399 -46 88 -57 104 -41 62z"/>
<path d="M3206 1219 c-32 -25 -56 -70 -55 -101 1 -19 2 -18 8 7 17 70 45 97 110 106 l46 6 -41 2 c-28 1 -50 -6 -68 -20z"/>
<path d="M4704 1221 c-32 -20 -64 -57 -64 -76 0 -5 9 4 20 22 33 55 108 79 163 52 21 -10 21 -10 3 5 -27 22 -84 20 -122 -3z"/>
<path d="M4850 1209 c0 -4 7 -20 15 -35 20 -40 19 -80 -4 -103 -19 -19 -79 -41 -113 -41 -29 0 -21 -18 21 -45 53 -36 99 -41 161 -19 l50 18 16 -23 c18 -25 131 -111 146 -111 6 0 -14 16 -43 35 -30 20 -68 52 -86 73 l-32 36 -51 -18 c-32 -12 -64 -16 -86 -13 -36 6 -115 49 -98 53 5 2 29 8 53 14 84 22 115 88 71 155 -11 17 -20 27 -20 24z"/>
<path d="M1778 1140 c-7 -11 -21 -20 -31 -20 -10 0 -32 -13 -48 -29 -24 -24 -29 -37 -28 -73 l2 -43 6 49 c8 51 36 86 71 86 10 0 25 11 34 25 9 14 14 25 11 25 -3 0 -10 -9 -17 -20z"/>
<path d="M4623 1035 c0 -38 2 -53 4 -32 2 20 2 52 0 70 -2 17 -4 1 -4 -38z"/>
<path d="M3160 1082 c0 -16 61 -50 102 -57 44 -8 41 -17 -10 -45 -20 -10 -32 -19 -26 -20 15 0 77 42 81 56 2 7 -15 14 -42 18 -26 4 -58 18 -75 32 -16 14 -30 21 -30 16z"/>
<path d="M6190 1032 l5 -47 3 39 c2 21 0 42 -5 47 -4 4 -6 -13 -3 -39z"/>
<path d="M4308 1063 c12 -2 30 -2 40 0 9 3 -1 5 -23 4 -22 0 -30 -2 -17 -4z"/>
<path d="M4233 1050 c-35 -14 -27 -20 10 -8 17 6 34 13 36 14 8 7 -24 3 -46 -6z"/>
<path d="M4390 1051 c48 -15 93 -43 142 -88 46 -44 59 -75 38 -88 -35 -21 13 -115 59 -115 88 0 117 105 41 148 -16 9 -31 24 -34 32 -3 12 -4 12 -5 -1 -2 -38 -34 -29 -90 25 -59 55 -127 97 -158 95 -12 0 -10 -3 7 -8z"/>
<path d="M3830 1029 c19 -12 51 -35 70 -52 21 -20 27 -23 15 -8 -24 29 -94 81 -109 81 -6 0 5 -10 24 -21z"/>
<path d="M4154 994 l-39 -35 43 32 c38 30 48 39 39 39 -2 0 -21 -16 -43 -36z"/>
<path d="M3503 965 c-41 -41 -60 -54 -74 -50 -10 4 -19 12 -19 18 0 7 -5 4 -11 -5 -5 -10 -16 -18 -24 -18 -21 0 -45 -41 -45 -76 0 -23 8 -39 26 -53 36 -28 70 -26 100 5 26 25 29 61 10 106 -6 13 6 31 48 73 31 30 54 55 51 55 -4 0 -31 -25 -62 -55z"/>
<path d="M3008 939 c-53 -54 -102 -82 -181 -104 -43 -13 -45 -15 -14 -11 61 8 143 51 202 107 l54 51 41 -16 c22 -9 55 -15 73 -15 27 1 24 3 -14 9 -26 4 -56 13 -67 19 -31 17 -43 12 -94 -40z"/>
<path d="M1734 904 c-26 -34 -27 -36 -9 -52 17 -16 18 -16 6 0 -10 14 -9 21 5 43 9 14 24 30 33 35 9 5 11 10 4 10 -7 0 -24 -16 -39 -36z"/>
<path d="M6271 933 c8 -2 23 -17 33 -34 14 -24 15 -33 5 -45 -11 -13 13 -41 156 -184 93 -93 171 -168 173 -166 2 2 -6 21 -18 43 -14 25 -19 30 -14 13 4 -17 -39 20 -144 124 -127 126 -149 152 -140 166 14 22 -25 91 -50 89 -14 -1 -15 -2 -1 -6z"/>
<path d="M6415 929 c-17 -8 -16 -8 7 -4 21 4 28 0 33 -16 9 -27 16 -20 8 9 -6 24 -16 26 -48 11z"/>
<path d="M1542 825 c-17 -37 -14 -45 4 -12 9 16 14 31 11 33 -2 2 -9 -7 -15 -21z"/>
<path d="M1583 685 c-83 -79 -153 -142 -156 -139 -3 3 -8 -4 -12 -16 -4 -12 -5 -22 -3 -23 1 -1 77 71 167 161 91 89 163 162 160 162 -3 0 -73 -65 -156 -145z"/>
<path d="M3812 760 c-44 -27 -67 -80 -52 -124 11 -35 43 -69 74 -80 33 -11 104 4 109 23 2 10 20 30 39 45 31 23 39 25 64 16 33 -13 73 -57 74 -81 0 -13 8 -14 48 -9 26 3 57 12 69 18 26 14 53 61 53 92 0 40 -31 88 -67 105 -35 17 -58 15 -120 -11 -6 -3 -13 3 -16 13 -3 12 -5 10 -6 -8 -1 -37 -20 -87 -35 -92 -7 -3 -24 -3 -38 0 -21 4 -29 14 -39 48 -7 24 -16 42 -21 39 -4 -3 -21 2 -37 11 -40 20 -59 19 -99 -5z"/>
<path d="M6541 715 c0 -5 6 -21 14 -35 8 -14 14 -20 14 -15 0 6 -6 21 -14 35 -8 14 -14 21 -14 15z"/>
<path d="M1442 595 c-17 -37 -14 -45 4 -12 9 16 14 31 11 33 -2 2 -9 -7 -15 -21z"/>
<path d="M3913 455 c0 -38 2 -53 4 -32 2 20 2 52 0 70 -2 17 -4 1 -4 -38z"/>
</g>
<g id="layer104" fill="#505150" stroke="none">
<path d="M4010 7511 c0 -5 9 -11 21 -14 16 -4 18 -3 8 9 -13 16 -29 19 -29 5z"/>
<path d="M4412 6275 c-61 -35 -102 -65 -102 -75 0 -5 15 -12 33 -15 17 -4 37 -10 42 -13 6 -4 16 -7 23 -8 7 -2 34 -13 60 -25 67 -33 122 -30 211 11 86 39 87 36 -51 106 -104 52 -151 57 -216 19z"/>
<path d="M3667 6159 c-11 -6 -26 -12 -35 -14 -10 -2 -18 -4 -19 -5 -2 -2 -6 -3 -10 -4 -39 -10 -122 -58 -135 -78 -16 -24 -45 -174 -36 -183 9 -9 193 83 215 107 19 21 63 141 63 174 0 17 -18 18 -43 3z"/>
<path d="M4300 6163 c0 -32 54 -173 72 -190 19 -17 198 -103 215 -103 2 0 2 8 -1 18 -3 9 -8 42 -11 72 -12 96 -43 131 -149 166 -26 9 -60 23 -75 30 -28 15 -51 18 -51 7z"/>
<path d="M3128 6101 c-40 -27 -88 -63 -107 -78 l-34 -29 80 -22 c44 -12 89 -22 100 -22 18 0 54 16 123 57 19 11 55 32 80 46 l45 26 -77 36 c-42 19 -90 35 -107 35 -19 0 -56 -18 -103 -49z"/>
<path d="M4725 6137 c-95 -40 -115 -50 -115 -57 0 -7 25 -22 41 -24 3 -1 13 -9 23 -19 10 -9 22 -15 27 -12 5 4 9 2 9 -4 0 -5 12 -16 28 -24 15 -8 41 -22 57 -31 37 -20 68 -20 126 -2 24 8 57 17 73 21 27 6 27 7 12 24 -9 10 -52 44 -96 76 -86 62 -132 74 -185 52z"/>
<path d="M3378 6030 c-14 -10 -28 -16 -32 -13 -3 3 -6 1 -6 -6 0 -7 -4 -10 -9 -7 -5 4 -11 3 -13 -2 -1 -4 -24 -20 -50 -35 -70 -41 -92 -96 -79 -200 l6 -47 89 59 c49 33 94 68 100 78 11 20 35 135 36 171 0 27 -10 28 -42 2z"/>
<path d="M4594 6018 c3 -18 10 -59 15 -92 5 -32 18 -67 28 -78 20 -23 175 -128 188 -128 4 0 5 39 2 86 -7 95 -20 124 -70 154 -18 10 -37 23 -43 29 -7 5 -15 7 -18 4 -3 -4 -6 -1 -6 6 0 7 -4 10 -9 6 -5 -3 -15 1 -23 8 -15 15 -53 37 -63 37 -4 0 -5 -15 -1 -32z"/>
<path d="M3115 5861 c-136 -105 -163 -146 -150 -226 3 -19 8 -51 11 -71 l5 -36 72 68 c99 94 109 113 105 214 l-3 82 -40 -31z"/>
<path d="M4853 5823 c-2 -110 8 -133 94 -212 42 -39 80 -71 85 -71 4 0 9 26 10 58 5 125 4 130 -38 174 -34 35 -137 118 -147 118 -2 0 -4 -30 -4 -67z"/>
<path d="M2720 5716 c-25 -14 -132 -154 -146 -189 -5 -14 0 -17 37 -17 98 1 129 14 187 76 29 33 68 74 85 91 17 18 28 36 24 39 -15 15 -161 15 -187 0z"/>
<path d="M5123 5723 c-30 -6 -29 -10 15 -53 20 -20 56 -59 80 -87 37 -45 50 -53 97 -63 30 -6 72 -10 95 -8 l41 3 -57 83 c-81 119 -100 132 -182 131 -37 -1 -77 -4 -89 -6z"/>
<path d="M2859 5617 c-36 -40 -71 -82 -78 -95 -11 -21 -11 -88 2 -122 2 -8 9 -30 13 -48 l9 -34 53 66 c89 111 96 127 89 207 -9 107 -13 108 -88 26z"/>
<path d="M5079 5673 c0 -10 -2 -29 -4 -43 -8 -51 -7 -129 1 -142 27 -44 129 -166 136 -162 4 3 8 18 8 34 0 16 3 31 8 34 4 2 8 30 10 63 3 64 1 69 -92 176 -53 60 -65 68 -67 40z"/>
<path d="M2593 5480 c-57 -13 -78 -36 -131 -141 -28 -56 -50 -104 -48 -106 5 -5 119 23 142 35 32 17 116 122 97 122 -4 0 0 6 9 13 8 6 25 29 37 50 l23 37 -49 -1 c-26 -1 -63 -4 -80 -9z"/>
<path d="M5300 5485 c0 -12 24 -55 32 -55 4 0 8 -7 8 -15 0 -9 7 -18 15 -21 8 -4 12 -10 9 -15 -3 -5 -1 -9 4 -9 5 0 15 -13 22 -29 19 -47 54 -72 131 -92 39 -11 74 -18 76 -15 8 8 -86 188 -111 214 -13 13 -40 27 -62 32 -41 10 -124 13 -124 5z"/>
<path d="M2712 5441 c-12 -17 -22 -35 -22 -41 0 -5 -4 -10 -10 -10 -5 0 -10 -7 -10 -15 0 -8 -4 -15 -10 -15 -5 0 -10 -7 -10 -15 0 -8 -4 -15 -9 -15 -4 0 -14 -20 -21 -45 -11 -39 -10 -53 5 -103 36 -114 32 -114 93 -6 52 92 54 98 49 152 -6 65 -15 110 -26 129 -5 10 -13 6 -29 -16z"/>
<path d="M5265 5434 c-5 -21 -9 -41 -9 -44 -1 -3 -4 -9 -7 -15 -3 -5 -7 -29 -8 -52 -2 -35 7 -60 49 -138 28 -52 55 -95 59 -95 13 0 43 89 48 143 4 40 1 55 -21 87 -14 22 -26 44 -26 50 0 5 -5 10 -12 10 -6 0 -9 3 -5 6 3 3 -1 13 -9 22 -8 10 -23 28 -33 41 l-18 25 -8 -40z"/>
<path d="M2477 5216 c-72 -20 -100 -53 -136 -161 -43 -129 -43 -129 27 -99 74 33 107 65 122 120 7 24 17 44 22 44 5 0 6 5 3 10 -3 6 -1 10 5 10 6 0 8 5 5 10 -3 6 -2 10 4 10 20 0 18 -17 -10 -79 -16 -35 -29 -77 -29 -92 0 -27 58 -159 70 -159 7 0 80 202 80 223 0 24 -52 157 -62 157 -4 0 -10 -11 -14 -25 -6 -25 -15 -31 -27 -19 -3 4 0 16 8 28 29 40 15 44 -68 22z"/>
<path d="M5481 5163 c17 -38 37 -84 46 -103 9 -19 23 -43 32 -54 16 -18 141 -79 148 -72 8 7 -58 194 -80 227 -17 25 -36 38 -77 51 -30 9 -65 17 -77 17 -22 1 -21 0 8 -66z"/>
<path d="M5424 5205 c-4 -11 -15 -42 -26 -68 -10 -26 -18 -64 -18 -85 0 -32 57 -202 73 -218 3 -3 19 21 36 55 32 62 43 152 21 166 -6 4 -8 9 -6 13 2 4 -13 41 -34 82 -32 62 -40 72 -46 55z"/>
<path d="M2372 4928 c-55 -25 -66 -35 -82 -71 -18 -41 -54 -226 -46 -234 2 -3 31 14 63 36 55 37 83 73 83 105 0 7 6 26 14 42 8 16 17 40 19 54 2 14 7 33 11 42 4 9 6 25 4 36 -3 17 -7 17 -66 -10z"/>
<path d="M5574 4934 c3 -9 9 -28 12 -42 3 -15 8 -34 11 -42 3 -8 7 -22 9 -30 10 -55 25 -94 41 -112 21 -24 116 -88 121 -83 8 8 -30 202 -46 235 -26 53 -167 123 -148 74z"/>
<path d="M2447 4897 c-24 -64 -33 -107 -36 -162 -2 -44 3 -58 39 -113 23 -35 43 -62 45 -60 7 7 45 192 45 218 0 25 -53 145 -69 154 -5 3 -15 -13 -24 -37z"/>
<path d="M5505 4868 c-19 -40 -35 -82 -34 -93 0 -11 10 -64 23 -118 l22 -98 20 23 c60 67 81 135 63 200 -7 23 -14 50 -15 58 -9 46 -28 100 -36 100 -5 0 -24 -32 -43 -72z"/>
<path d="M5646 4603 c4 -37 10 -72 15 -77 5 -6 9 -30 9 -53 0 -54 16 -86 68 -137 39 -37 40 -38 47 -15 9 27 -2 192 -16 236 -6 20 -28 44 -57 66 -78 55 -73 56 -66 -20z"/>
<path d="M2308 4627 c-67 -51 -79 -85 -76 -217 l3 -111 44 43 c53 52 68 85 76 168 3 36 8 84 11 108 3 24 1 42 -5 42 -5 0 -29 -15 -53 -33z"/>
<path d="M2381 4609 c-28 -143 -21 -205 29 -257 17 -18 27 -32 23 -32 -4 0 3 -7 15 -16 13 -9 25 -14 27 -12 2 2 5 55 7 119 l3 115 -40 60 c-21 32 -42 63 -46 68 -4 4 -12 -16 -18 -45z"/>
<path d="M5572 4593 c-38 -60 -42 -73 -42 -128 0 -34 3 -90 7 -125 l6 -62 39 43 c57 64 69 97 63 177 -6 87 -15 145 -24 154 -3 4 -25 -23 -49 -59z"/>
<path d="M5669 4310 l-2 -65 -11 59 -11 58 -52 -61 c-46 -54 -52 -67 -57 -121 -3 -33 -9 -88 -12 -122 l-6 -61 50 42 c56 47 82 99 82 161 0 22 3 40 8 40 4 0 7 -33 7 -73 0 -65 3 -78 35 -129 19 -32 38 -58 41 -58 15 0 41 212 33 258 -4 20 -25 53 -55 85 l-48 52 -2 -65z"/>
<path d="M2320 4008 c-21 -38 -30 -66 -30 -98 0 -41 29 -150 60 -225 l12 -30 24 69 c26 76 30 116 14 147 -8 13 -7 19 0 19 6 0 13 -8 16 -17 19 -60 32 -79 79 -114 60 -45 70 -48 61 -16 -4 12 -18 65 -32 117 -23 87 -29 99 -77 148 -28 28 -55 52 -60 52 -5 0 -6 -13 -2 -30 4 -19 3 -30 -4 -30 -6 0 -11 11 -11 24 0 44 -19 38 -50 -16z"/>
<path d="M5572 4012 c-53 -46 -54 -49 -86 -167 -18 -66 -32 -122 -30 -124 6 -7 97 64 117 91 11 15 23 44 26 64 3 21 13 40 21 42 12 4 13 2 4 -9 -26 -33 -8 -205 26 -242 7 -9 67 166 77 226 4 28 -1 49 -22 92 -39 76 -51 84 -59 40 -4 -19 -11 -35 -16 -35 -12 0 -12 -2 -1 38 5 17 7 32 3 32 -4 0 -31 -22 -60 -48z m61 -69 c-5 -11 -8 -12 -13 -2 -5 7 -6 19 -3 26 5 11 8 12 13 2 5 -7 6 -19 3 -26z"/>
<path d="M2428 3748 c-9 -7 -24 -36 -33 -64 -21 -65 -12 -100 58 -239 l51 -100 9 55 c8 53 5 124 -8 165 -6 19 -5 19 7 1 35 -50 61 -74 109 -100 61 -34 61 -39 -3 108 -38 88 -49 104 -98 143 -60 47 -68 49 -92 31z m36 -57 c-7 -7 -12 3 -19 34 l-6 30 14 -30 c8 -16 13 -32 11 -34z"/>
<path d="M5506 3725 c-27 -19 -55 -43 -62 -53 -11 -15 -65 -134 -101 -220 -9 -22 97 37 128 71 16 17 29 40 29 50 0 10 4 16 9 13 5 -3 3 -24 -5 -46 -10 -28 -12 -62 -7 -116 6 -70 8 -75 21 -58 25 34 101 196 108 231 6 33 -9 107 -29 148 -10 19 -11 18 -24 -10 l-14 -30 4 28 c2 15 1 27 -2 27 -3 0 -28 -16 -55 -35z"/>
<path d="M2901 3052 c-5 -10 -48 -119 -95 -243 -142 -373 -128 -342 -169 -362 -41 -19 -47 -41 -18 -57 30 -15 276 -13 289 3 6 7 31 64 55 125 24 62 48 113 53 114 5 0 18 -26 29 -58 l20 -59 3 85 c3 81 0 92 -59 265 -73 212 -84 232 -108 187z"/>
<path d="M3103 6889 c-24 -17 -43 -32 -43 -35 0 -3 20 9 45 26 25 17 45 33 45 35 0 7 -2 6 -47 -26z"/>
<path d="M4980 6856 c0 -2 14 -14 30 -26 17 -12 30 -19 30 -16 0 2 -13 14 -30 26 -16 12 -30 19 -30 16z"/>
<path d="M2913 6759 c-24 -17 -43 -32 -43 -35 0 -3 20 9 45 26 25 17 45 33 45 35 0 7 -2 6 -47 -26z"/>
<path d="M5200 6706 c0 -3 20 -19 45 -36 25 -17 45 -29 45 -26 0 3 -20 19 -45 36 -25 17 -45 29 -45 26z"/>
<path d="M5300 6636 c0 -2 14 -14 30 -26 17 -12 30 -19 30 -16 0 2 -13 14 -30 26 -16 12 -30 19 -30 16z"/>
<path d="M5370 6587 c0 -3 17 -17 37 -33 20 -15 33 -23 29 -16 -8 13 -66 56 -66 49z"/>
<path d="M5545 6440 c21 -22 41 -40 44 -40 3 0 -13 18 -34 40 -21 22 -41 40 -44 40 -3 0 13 -18 34 -40z"/>
<path d="M5720 6265 c19 -19 36 -35 39 -35 3 0 -10 16 -29 35 -19 19 -36 35 -39 35 -3 0 10 -16 29 -35z"/>
<path d="M1712 4920 c0 -19 2 -27 5 -17 2 9 2 25 0 35 -3 9 -5 1 -5 -18z"/>
<path d="M470 2774 c0 -7 5 -58 10 -115 20 -198 87 -386 180 -507 22 -29 40 -57 40 -62 0 -15 -128 -12 -216 5 -131 25 -267 102 -311 175 -27 47 -33 35 -13 -29 54 -181 179 -316 359 -392 100 -42 203 -66 466 -109 438 -72 573 -124 711 -273 62 -67 140 -214 131 -248 -3 -10 -1 -17 4 -13 5 3 9 -6 9 -19 0 -13 3 -27 6 -30 4 -3 81 103 172 236 120 176 165 249 163 267 -1 14 -3 33 -4 43 -1 9 -4 17 -8 17 -4 0 -13 17 -19 38 -19 58 -85 165 -134 216 -125 128 -291 189 -686 251 -310 49 -453 89 -568 159 -128 78 -203 169 -259 316 -18 47 -32 80 -33 74z"/>
<path d="M7552 2730 c-47 -155 -168 -298 -313 -369 -135 -66 -242 -92 -619 -151 -300 -47 -465 -113 -586 -234 -65 -65 -121 -156 -148 -240 -6 -18 -7 -18 -29 0 -21 19 -21 19 -7 0 8 -11 15 -39 15 -63 0 -39 15 -64 160 -278 88 -129 163 -235 166 -235 4 0 9 10 13 22 6 23 6 23 31 -7 l26 -30 -26 41 -26 42 24 60 c56 137 151 240 284 310 126 66 234 92 633 157 91 15 203 38 250 51 234 67 389 194 464 380 45 114 43 119 -27 50 -98 -99 -212 -143 -394 -153 -57 -3 -103 -3 -103 0 0 3 26 45 58 94 69 103 105 182 132 290 36 139 55 375 22 263z"/>
<path d="M1720 2385 c0 -7 141 -77 146 -73 2 2 -30 21 -71 41 -41 20 -75 35 -75 32z"/>
<path d="M6230 2345 c-14 -8 -20 -14 -15 -14 6 0 21 6 35 14 14 8 21 14 15 14 -5 0 -21 -6 -35 -14z"/>
<path d="M4683 1893 c9 -2 25 -2 35 0 9 3 1 5 -18 5 -19 0 -27 -2 -17 -5z"/>
<path d="M3548 1873 c12 -2 32 -2 45 0 12 2 2 4 -23 4 -25 0 -35 -2 -22 -4z"/>
<path d="M4488 1873 c12 -2 32 -2 45 0 12 2 2 4 -23 4 -25 0 -35 -2 -22 -4z"/>
<path d="M3943 1853 c53 -2 141 -2 195 0 53 1 9 3 -98 3 -107 0 -151 -2 -97 -3z"/>
<path d="M3062 1295 c-17 -36 -30 -65 -27 -65 7 0 67 121 63 126 -2 2 -18 -26 -36 -61z"/>
<path d="M4775 1231 c22 -4 47 -10 55 -15 8 -4 6 0 -4 8 -11 9 -36 15 -55 15 l-36 -2 40 -6z"/>
<path d="M3190 1205 c-13 -14 -22 -26 -19 -28 2 -1 16 10 31 25 15 15 23 28 19 28 -4 0 -18 -11 -31 -25z"/>
<path d="M4688 1208 c-13 -13 -17 -18 -8 -12 8 6 24 16 35 22 11 6 15 12 8 12 -7 0 -22 -10 -35 -22z"/>
<path d="M4875 1125 c0 -23 3 -41 8 -38 9 6 9 54 -1 70 -4 7 -7 -8 -7 -32z"/>
<path d="M6336 1090 c12 -14 24 -32 27 -40 5 -13 6 -13 6 1 1 8 -11 26 -26 40 l-28 24 21 -25z"/>
<path d="M4623 1030 c0 -36 2 -50 4 -32 2 17 2 47 0 65 -2 17 -4 3 -4 -33z"/>
<path d="M3698 1063 c12 -2 30 -2 40 0 9 3 -1 5 -23 4 -22 0 -30 -2 -17 -4z"/>
<path d="M4313 1063 c9 -2 25 -2 35 0 9 3 1 5 -18 5 -19 0 -27 -2 -17 -5z"/>
<path d="M1673 1020 c0 -25 2 -35 4 -22 2 12 2 32 0 45 -2 12 -4 2 -4 -23z"/>
<path d="M4758 1033 c-32 -5 -35 -15 -10 -34 14 -11 15 -11 4 1 -10 12 -6 16 25 26 38 12 31 14 -19 7z"/>
<path d="M3283 1023 c18 -5 18 -5 0 -26 l-18 -22 23 19 c12 11 22 23 22 28 0 4 -10 7 -22 7 -19 -1 -19 -2 -5 -6z"/>
<path d="M2805 928 l-70 -73 73 70 c67 64 77 75 69 75 -1 0 -34 -33 -72 -72z"/>
<path d="M4538 960 c41 -45 52 -73 32 -85 -35 -21 13 -115 59 -115 88 0 117 105 41 148 -16 9 -31 24 -34 32 -3 12 -4 12 -5 -1 -2 -37 -34 -30 -85 18 l-51 48 43 -45z"/>
<path d="M3015 942 c-27 -26 -61 -55 -75 -65 -24 -17 -24 -17 -1 -6 25 12 146 119 133 119 -4 0 -29 -22 -57 -48z"/>
<path d="M4968 983 c8 -3 30 -22 49 -42 l35 -36 -33 42 c-19 24 -41 42 -49 42 -11 0 -12 -2 -2 -6z"/>
<path d="M5230 925 c30 -30 57 -55 59 -55 3 0 -19 25 -49 55 -30 30 -57 55 -59 55 -3 0 19 -25 49 -55z"/>
<path d="M1647 950 c-8 -12 -23 -19 -37 -18 -13 2 -24 -3 -26 -10 -1 -7 0 -8 3 -2 2 5 15 7 27 4 17 -4 27 1 40 20 19 30 14 35 -7 6z"/>
<path d="M6415 930 c-16 -7 -14 -8 12 -7 18 1 33 5 33 10 0 9 -19 8 -45 -3z"/>
<path d="M6314 882 c4 -7 2 -20 -5 -28 -11 -13 13 -41 156 -184 93 -93 171 -168 172 -166 2 2 -2 15 -8 30 -7 15 -15 22 -19 17 -3 -6 -73 57 -155 139 -130 130 -147 151 -135 165 11 13 11 18 0 28 -10 9 -11 9 -6 -1z"/>
<path d="M2707 842 c-25 -28 -21 -32 26 -30 l42 1 -38 4 c-38 4 -38 5 -21 24 9 10 15 19 12 19 -3 0 -12 -8 -21 -18z"/>
<path d="M6481 855 c0 -5 6 -21 14 -35 8 -14 14 -20 14 -15 0 6 -6 21 -14 35 -8 14 -14 21 -14 15z"/>
<path d="M3812 760 c-44 -27 -67 -80 -52 -124 11 -35 43 -69 74 -80 29 -10 106 4 106 20 0 7 18 28 40 45 38 30 43 44 17 44 -6 0 -18 21 -27 48 -9 26 -19 45 -22 41 -4 -3 -20 2 -37 10 -40 21 -59 20 -99 -4z"/>
<path d="M4081 758 c-1 -37 -19 -81 -37 -95 -14 -10 -13 -13 8 -23 27 -15 67 -60 68 -77 0 -18 74 -16 110 2 32 17 60 61 60 95 0 40 -31 88 -67 105 -35 17 -58 15 -120 -11 -6 -3 -13 3 -16 13 -3 12 -5 9 -6 -9z"/>
<path d="M1502 735 c-17 -37 -14 -45 4 -12 9 16 14 31 11 33 -2 2 -9 -7 -15 -21z"/>
<path d="M1530 633 l-95 -98 98 95 c53 52 97 96 97 97 0 8 -12 -4 -100 -94z"/>
</g>
<g id="layer105" fill="#767675" stroke="none">
<path d="M3370 6248 c-55 -28 -99 -56 -97 -61 5 -16 149 -76 183 -77 17 0 52 11 77 24 25 14 48 22 51 19 3 -4 6 -1 6 5 0 6 6 9 14 6 8 -3 17 -1 21 5 3 6 12 11 20 11 8 0 26 5 41 10 l28 11 -75 49 c-102 68 -133 68 -269 -2z"/>
<path d="M3128 6101 c-40 -27 -88 -63 -107 -78 l-34 -29 80 -22 c117 -32 101 -36 268 61 l79 46 -76 36 c-42 19 -90 35 -107 35 -19 0 -56 -18 -103 -49z"/>
<path d="M4725 6137 c-95 -40 -115 -50 -115 -57 0 -8 20 -18 32 -16 3 0 18 -10 32 -23 14 -14 26 -20 26 -15 0 5 4 4 8 -1 15 -22 96 -67 127 -72 18 -3 55 2 81 10 27 8 62 18 78 22 27 6 27 7 12 24 -9 10 -52 44 -96 76 -86 62 -132 74 -185 52z"/>
<path d="M4594 6018 c3 -18 10 -59 15 -92 5 -32 18 -67 28 -78 20 -23 175 -128 188 -128 4 0 5 39 2 87 -7 99 -21 125 -83 160 -21 12 -44 25 -49 30 -6 4 -17 9 -25 11 -8 2 -17 7 -20 11 -6 9 -45 31 -55 31 -4 0 -5 -15 -1 -32z"/>
<path d="M2720 5716 c-25 -14 -132 -154 -146 -189 -5 -14 0 -17 37 -17 96 1 130 15 182 72 27 29 65 70 85 90 19 21 32 41 29 45 -15 14 -162 14 -187 -1z"/>
<path d="M5079 5673 c0 -10 -2 -27 -3 -38 -5 -33 -8 -88 -7 -116 1 -23 124 -194 139 -194 8 0 31 113 31 156 1 38 -11 57 -93 152 -53 60 -65 68 -67 40z"/>
<path d="M2593 5480 c-57 -13 -78 -36 -131 -141 -28 -56 -50 -104 -48 -106 5 -5 120 23 144 36 22 12 92 97 92 113 0 5 8 17 18 28 9 10 25 32 35 49 l18 31 -48 -1 c-26 -1 -63 -4 -80 -9z"/>
<path d="M2712 5440 c-12 -16 -22 -34 -22 -40 0 -5 -4 -10 -10 -10 -5 0 -10 -7 -10 -15 0 -8 -3 -15 -8 -15 -10 0 -52 -94 -52 -118 0 -12 4 -31 9 -44 5 -13 17 -45 26 -71 l17 -49 54 94 c60 104 65 135 39 234 -8 31 -16 59 -18 60 -2 2 -13 -10 -25 -26z"/>
<path d="M5264 5432 c-4 -20 -9 -44 -11 -52 -20 -77 -16 -97 36 -194 29 -53 56 -96 60 -96 13 0 43 89 48 143 4 40 1 55 -21 87 -14 22 -26 44 -26 50 0 5 -4 10 -8 10 -5 0 -18 18 -31 40 -30 54 -38 56 -47 12z"/>
<path d="M5424 5205 c-4 -11 -15 -42 -26 -68 -10 -26 -18 -64 -18 -85 0 -32 57 -202 73 -218 3 -3 19 21 36 55 32 61 41 132 22 169 -4 9 -24 51 -44 92 -29 62 -36 71 -43 55z"/>
<path d="M2372 4928 c-55 -25 -66 -35 -82 -71 -18 -41 -54 -226 -46 -234 2 -3 31 14 63 36 58 39 83 73 83 111 0 10 4 21 9 24 5 3 12 23 15 43 4 21 12 50 17 65 21 52 9 57 -59 26z"/>
<path d="M5574 4934 c3 -9 9 -28 12 -42 3 -15 8 -34 11 -42 7 -17 8 -21 21 -78 6 -24 18 -53 29 -64 21 -24 116 -88 121 -83 8 8 -30 202 -46 235 -26 53 -167 123 -148 74z"/>
<path d="M2440 4878 c-11 -35 -24 -92 -26 -128 -5 -63 -4 -67 36 -128 23 -35 43 -62 45 -60 7 7 45 192 45 218 0 26 -53 145 -69 155 -5 3 -19 -23 -31 -57z"/>
<path d="M5505 4868 c-19 -40 -35 -82 -34 -93 0 -11 10 -64 23 -118 l22 -98 20 23 c60 67 81 135 63 200 -7 23 -13 45 -14 48 -16 70 -29 110 -36 110 -6 0 -25 -32 -44 -72z"/>
<path d="M5646 4608 c4 -34 11 -71 15 -80 5 -9 9 -35 9 -58 0 -51 17 -84 68 -134 39 -37 40 -38 47 -15 9 27 -2 192 -16 236 -6 20 -28 44 -57 66 -78 55 -74 56 -66 -15z"/>
<path d="M2308 4627 c-66 -50 -78 -82 -78 -217 l0 -114 46 44 c57 55 70 85 79 175 3 39 8 87 11 108 7 46 -2 47 -58 4z"/>
<path d="M2386 4633 c-15 -68 -23 -187 -15 -217 8 -31 93 -135 103 -126 2 3 6 57 8 121 l3 115 -40 60 c-54 81 -52 79 -59 47z"/>
<path d="M5572 4592 c-40 -63 -42 -69 -41 -141 0 -42 4 -97 7 -124 l7 -47 43 49 c23 27 47 62 52 76 13 35 -3 239 -19 250 -4 2 -26 -26 -49 -63z"/>
<path d="M2321 4009 c-22 -38 -31 -67 -31 -99 0 -43 52 -226 69 -243 12 -12 54 137 48 169 -3 16 -8 45 -12 64 -3 19 -9 42 -12 50 -3 8 -7 33 -9 55 -7 62 -19 63 -53 4z"/>
<path d="M2386 4018 c3 -24 8 -54 11 -68 3 -14 7 -29 8 -35 10 -71 38 -118 94 -159 57 -42 66 -44 57 -13 -4 12 -18 65 -32 117 -23 87 -29 99 -77 148 -28 28 -55 52 -59 52 -5 0 -6 -19 -2 -42z"/>
<path d="M5572 4012 c-53 -46 -54 -49 -86 -167 -18 -66 -32 -122 -30 -124 6 -7 97 64 117 90 18 26 32 72 43 149 3 19 9 50 14 68 4 17 5 32 2 32 -4 0 -31 -22 -60 -48z"/>
<path d="M5644 4023 c-4 -21 -9 -47 -10 -58 -2 -11 -6 -31 -9 -45 -17 -62 -17 -139 0 -192 10 -29 21 -57 25 -61 7 -9 67 166 77 226 4 28 -1 49 -22 92 -40 77 -51 84 -61 38z"/>
<path d="M2428 3748 c-9 -7 -24 -36 -33 -64 -21 -65 -12 -100 58 -239 l51 -100 9 55 c11 72 3 139 -23 189 -11 23 -16 41 -10 41 6 0 13 -8 16 -17 23 -72 64 -117 137 -154 48 -25 48 -30 -15 115 -38 88 -49 104 -98 143 -60 47 -68 49 -92 31z m45 -83 l6 -30 -14 31 c-8 17 -16 44 -20 60 l-5 29 14 -30 c7 -16 16 -43 19 -60z"/>
<path d="M5506 3725 c-27 -19 -55 -43 -62 -53 -11 -15 -66 -137 -101 -221 -10 -23 115 49 134 78 10 14 22 39 28 55 5 16 16 31 23 34 10 3 9 -4 -3 -29 -29 -55 -35 -89 -28 -167 6 -68 8 -73 21 -56 25 34 101 196 108 231 6 32 -8 107 -29 147 -8 17 -11 17 -18 4 -5 -9 -10 -24 -12 -34 -2 -11 -7 -27 -10 -36 -4 -10 -9 -25 -12 -33 -2 -8 -10 -15 -16 -15 -8 0 -8 4 1 15 7 8 9 15 5 15 -4 0 -2 7 5 15 7 8 9 15 5 15 -4 0 -3 6 2 13 13 16 23 57 15 57 -4 0 -29 -16 -56 -35z"/>
<path d="M2895 6744 l-30 -26 33 22 c17 12 32 23 32 26 0 7 -4 5 -35 -22z"/>
<path d="M5230 6686 c0 -2 14 -14 30 -26 17 -12 30 -19 30 -16 0 2 -13 14 -30 26 -16 12 -30 19 -30 16z"/>
<path d="M5540 6445 c19 -19 36 -35 39 -35 3 0 -10 16 -29 35 -19 19 -36 35 -39 35 -3 0 10 -16 29 -35z"/>
<path d="M5700 6287 c0 -2 15 -16 33 -33 l32 -29 -29 33 c-28 30 -36 37 -36 29z"/>
<path d="M3543 1873 c9 -2 25 -2 35 0 9 3 1 5 -18 5 -19 0 -27 -2 -17 -5z"/>
<path d="M4503 1873 c9 -2 25 -2 35 0 9 3 1 5 -18 5 -19 0 -27 -2 -17 -5z"/>
<path d="M3883 1853 c20 -2 54 -2 75 0 20 2 3 4 -38 4 -41 0 -58 -2 -37 -4z"/>
<path d="M4123 1853 c20 -2 54 -2 75 0 20 2 3 4 -38 4 -41 0 -58 -2 -37 -4z"/>
<path d="M5005 1230 c9 -16 18 -30 21 -30 2 0 -2 14 -11 30 -9 17 -18 30 -21 30 -2 0 2 -13 11 -30z"/>
<path d="M3258 1233 c12 -2 30 -2 40 0 9 3 -1 5 -23 4 -22 0 -30 -2 -17 -4z"/>
<path d="M4535 960 c21 -22 41 -40 44 -40 3 0 -13 18 -34 40 -21 22 -41 40 -44 40 -3 0 13 -18 34 -40z"/>
<path d="M2805 928 l-60 -63 63 60 c34 33 62 61 62 62 0 8 -10 -1 -65 -59z"/>
<path d="M3015 938 l-50 -53 55 50 c30 28 57 51 59 53 2 1 0 2 -5 2 -5 0 -32 -24 -59 -52z"/>
<path d="M5225 930 c21 -22 41 -40 44 -40 3 0 -13 18 -34 40 -21 22 -41 40 -44 40 -3 0 13 -18 34 -40z"/>
<path d="M4631 938 c0 -10 -11 -20 -23 -23 -25 -6 -48 -46 -48 -82 0 -29 42 -73 69 -73 88 0 117 105 41 148 -16 9 -31 24 -34 32 -3 11 -4 11 -5 -2z"/>
<path d="M6314 882 c4 -7 2 -20 -5 -28 -11 -13 13 -41 156 -184 93 -93 170 -168 172 -166 6 6 -9 36 -16 31 -4 -2 -76 65 -161 150 -134 135 -152 156 -140 170 11 13 11 18 0 28 -10 9 -11 9 -6 -1z"/>
<path d="M3812 760 c-44 -27 -67 -80 -52 -124 11 -35 43 -69 74 -80 29 -10 106 4 106 19 0 8 19 30 42 49 33 29 38 36 22 36 -16 0 -23 11 -34 50 -7 27 -17 47 -21 44 -5 -3 -22 2 -38 11 -40 20 -59 19 -99 -5z"/>
<path d="M4082 765 c2 -37 -24 -105 -41 -106 -13 0 -12 -3 3 -12 30 -18 76 -70 76 -84 0 -18 74 -17 110 2 32 17 60 61 60 95 0 40 -31 88 -67 105 -35 17 -58 15 -120 -11 -6 -3 -14 3 -17 13 -4 15 -5 15 -4 -2z"/>
</g>
<g id="layer106" fill="#058cd1" stroke="none">
<path d="M3397 6906 c-339 -232 -654 -451 -699 -487 -46 -35 -130 -111 -188 -169 -181 -179 -309 -359 -425 -595 -103 -209 -158 -374 -208 -625 -20 -102 -21 -136 -24 -1326 l-4 -1221 83 -38 c349 -159 811 -298 1228 -368 357 -60 495 -71 885 -71 354 0 454 7 745 50 263 39 572 113 838 203 167 56 444 166 533 212 l40 20 -4 1187 c-4 1265 -2 1213 -52 1452 -91 435 -324 848 -654 1162 -129 123 -166 150 -631 468 -212 145 -486 332 -609 417 -123 84 -226 153 -230 153 -3 0 -284 -191 -624 -424z m1232 -80 c326 -223 623 -429 660 -458 97 -76 273 -251 351 -348 234 -293 379 -618 452 -1009 22 -114 22 -135 25 -1292 3 -954 1 -1178 -9 -1186 -22 -17 -266 -118 -417 -172 -787 -283 -1653 -355 -2506 -211 -414 70 -787 179 -1158 337 l-108 46 4 1166 c4 1294 1 1228 73 1511 97 379 305 735 591 1010 134 130 182 166 720 533 104 71 305 209 448 307 143 98 265 177 270 176 6 -2 277 -186 604 -410z"/>
<path d="M3127 6544 c-4 -4 -7 -45 -7 -91 l0 -83 913 2 912 3 3 83 3 82 -895 0 c-492 0 -901 2 -908 5 -8 3 -17 2 -21 -1z"/>
<path d="M3480 5682 c0 -10 7 -69 16 -132 15 -112 17 -115 59 -162 38 -42 75 -118 75 -154 0 -7 -23 -13 -65 -16 -88 -5 -111 -25 -156 -129 -20 -46 -43 -85 -52 -87 -29 -6 -98 -203 -122 -348 -17 -105 -19 -191 -5 -265 12 -65 23 -78 47 -57 10 8 23 18 30 22 7 4 100 -109 244 -294 127 -165 233 -299 235 -297 2 2 10 41 18 86 8 46 17 85 20 88 3 3 27 -3 53 -15 79 -33 153 -45 254 -40 81 4 104 9 164 38 224 107 325 381 246 666 -21 75 -77 183 -117 225 -16 16 -24 37 -24 60 0 19 -4 49 -9 67 -10 33 -8 35 85 126 51 51 94 97 94 103 0 6 -21 14 -47 17 -84 12 -265 63 -363 101 -220 87 -430 212 -607 362 -34 29 -65 53 -68 53 -3 0 -5 -8 -5 -18z m100 -1252 c22 -14 7 -21 -67 -30 -37 -5 -87 -12 -110 -16 -28 -4 -43 -3 -43 4 0 9 33 24 100 46 26 8 104 6 120 -4z"/>
<path d="M4803 3528 c2 -7 12 -12 21 -11 12 0 15 -4 12 -14 -3 -8 -6 -18 -6 -23 0 -4 -15 -17 -34 -28 -37 -22 -71 -75 -60 -93 4 -6 6 -32 5 -58 -1 -68 44 -111 117 -111 35 0 88 33 94 58 9 31 -19 35 -44 7 -31 -36 -89 -35 -117 1 -40 51 -18 157 34 170 38 9 74 -4 87 -31 12 -26 32 -33 43 -15 11 18 -24 61 -61 76 -31 13 -33 16 -19 30 20 20 19 31 -4 44 -28 14 -74 13 -68 -2z"/>
<path d="M2983 3459 c-34 -10 -63 -42 -63 -71 0 -26 18 -22 50 12 29 31 65 39 101 20 22 -12 25 -43 7 -57 -7 -5 -39 -17 -70 -27 -60 -18 -78 -36 -78 -79 0 -31 29 -56 74 -64 57 -9 116 24 116 66 0 19 -35 12 -48 -10 -10 -16 -21 -19 -55 -17 -37 3 -42 6 -42 28 0 22 8 27 65 46 46 14 69 28 79 45 39 69 -45 136 -136 108z"/>
<path d="M3496 3460 c-38 -12 -66 -38 -82 -77 -19 -45 -17 -77 7 -124 30 -60 96 -83 166 -59 38 14 63 55 44 73 -10 9 -17 6 -33 -15 -16 -23 -27 -28 -63 -28 -54 0 -80 24 -89 82 -13 80 47 132 125 109 32 -10 39 -16 39 -36 0 -22 -4 -25 -35 -25 -29 0 -35 -4 -35 -21 0 -18 5 -20 53 -17 l52 3 3 53 c3 51 2 53 -30 66 -49 20 -90 26 -122 16z"/>
<path d="M3755 3461 c-47 -20 -57 -45 -62 -155 -6 -102 -5 -106 15 -106 19 0 20 7 24 101 2 86 6 103 22 115 26 18 56 18 84 -2 20 -14 22 -23 22 -115 0 -92 1 -99 20 -99 19 0 20 7 20 101 0 55 -5 109 -11 121 -11 21 -67 48 -96 47 -10 0 -27 -4 -38 -8z"/>
<path d="M3170 3330 l0 -131 95 3 c116 4 132 22 22 26 l-78 3 3 37 3 37 68 3 c51 2 67 6 67 17 0 12 -15 15 -71 15 l-70 0 3 43 3 42 78 3 c59 2 77 6 77 17 0 12 -19 15 -100 15 l-100 0 0 -130z"/>
<path d="M3967 3454 c-4 -4 -7 -63 -7 -131 l0 -123 88 0 c99 0 119 9 128 58 6 27 2 36 -23 59 l-29 27 30 47 c17 26 36 47 41 45 6 -1 30 -55 55 -120 41 -107 47 -117 69 -114 20 3 31 21 72 122 27 65 49 123 49 127 0 5 -8 9 -18 9 -13 0 -24 -13 -35 -40 -15 -39 -16 -40 -67 -40 -51 0 -52 1 -67 40 -15 38 -18 40 -58 40 -40 0 -44 -3 -78 -54 -30 -45 -41 -54 -71 -58 -41 -5 -50 8 -44 70 2 27 -1 38 -13 40 -8 1 -18 0 -22 -4z m383 -119 c0 -9 -7 -32 -16 -53 l-16 -37 -18 40 c-27 58 -25 65 15 65 25 0 35 -4 35 -15z m-226 -41 c38 -37 10 -64 -66 -64 l-58 0 0 33 c0 19 3 37 7 40 13 14 101 7 117 -9z"/>
<path d="M4467 3453 c-9 -8 -9 -112 -1 -192 10 -87 27 -82 105 32 l64 92 3 -92 c3 -85 4 -93 23 -93 19 0 19 6 17 128 -3 119 -4 127 -23 127 -14 0 -39 -28 -85 -95 l-65 -95 -3 98 c-2 71 -6 97 -16 97 -7 0 -16 -3 -19 -7z"/>
<path d="M4978 3455 c-3 -3 16 -61 42 -128 41 -105 51 -122 72 -125 22 -3 28 7 75 122 28 69 48 127 45 130 -14 15 -33 3 -49 -31 -18 -37 -20 -38 -72 -38 -53 0 -54 1 -66 35 -11 32 -33 49 -47 35z m143 -130 c-1 -11 -9 -33 -16 -50 l-13 -30 -16 37 c-25 57 -22 70 17 66 26 -2 31 -7 28 -23z"/>
<path d="M2611 3056 c-11 -13 -6 -22 28 -54 l41 -39 0 -166 c0 -96 4 -167 9 -167 24 0 55 116 60 225 3 61 10 116 14 123 5 6 22 19 38 28 22 11 29 21 27 37 -3 21 -9 22 -104 25 -80 2 -104 0 -113 -12z"/>
<path d="M2901 3052 c-5 -10 -48 -119 -95 -243 -142 -373 -128 -342 -169 -362 -41 -19 -47 -41 -18 -57 30 -15 276 -13 289 3 6 7 31 64 55 125 24 62 48 113 53 114 5 0 16 -21 25 -46 24 -70 29 -66 29 21 0 72 -6 98 -61 259 -73 212 -84 231 -108 186z"/>
<path d="M3058 3059 c-28 -16 -21 -36 17 -49 l35 -11 2 -307 3 -307 140 -3 c103 -2 145 1 158 11 23 16 13 43 -19 51 l-24 6 0 275 0 275 24 10 c32 12 41 28 26 45 -10 12 -45 15 -179 15 -94 0 -174 -5 -183 -11z"/>
<path d="M3522 3058 c-19 -19 -14 -36 16 -50 l27 -13 3 -267 2 -267 -30 -16 c-16 -8 -30 -22 -30 -30 0 -28 38 -36 177 -33 l138 3 0 340 0 340 -145 3 c-105 2 -149 -1 -158 -10z"/>
<path d="M3877 3063 c-4 -3 -7 -16 -7 -29 0 -17 7 -24 33 -29 50 -11 107 -55 130 -102 20 -42 47 -61 67 -48 6 3 10 51 10 111 l0 104 -113 0 c-63 0 -117 -3 -120 -7z"/>
<path d="M4313 3063 c-25 -9 -14 -44 17 -54 l30 -11 2 -266 c1 -147 3 -280 4 -297 1 -16 3 -36 3 -42 1 -10 33 -13 126 -13 l125 0 0 304 c0 319 0 319 45 328 24 4 33 37 13 49 -14 9 -344 11 -365 2z"/>
<path d="M4840 3050 c-9 -17 -5 -23 30 -45 21 -14 46 -37 53 -52 8 -16 39 -109 70 -208 30 -99 60 -191 65 -205 l10 -25 12 30 c20 49 15 94 -23 210 -19 61 -42 134 -51 163 -17 58 -18 56 44 101 21 16 22 21 11 35 -11 13 -33 16 -112 16 -88 0 -99 -2 -109 -20z"/>
<path d="M5203 3063 c-20 -7 -15 -41 7 -53 23 -12 24 -20 9 -72 l-10 -38 -75 0 -75 0 3 -27 c3 -27 6 -28 66 -31 34 -2 62 -8 62 -13 0 -6 -23 -97 -50 -204 -66 -254 -69 -245 80 -245 128 0 114 -13 154 140 118 453 134 500 168 500 15 0 8 38 -8 44 -19 7 -313 7 -331 -1z"/>
<path d="M3956 2853 c-4 -5 -14 -22 -21 -40 -7 -17 -25 -39 -39 -48 -18 -12 -26 -26 -26 -45 0 -19 8 -33 26 -45 14 -9 32 -32 40 -51 18 -43 42 -54 60 -29 17 23 19 216 4 246 -11 19 -31 25 -44 12z"/>
<path d="M4175 2598 c-3 -13 -5 -66 -3 -118 l3 -95 75 0 c73 0 75 1 78 25 2 17 -8 37 -32 64 -21 22 -38 53 -42 74 -10 54 -22 72 -49 72 -17 0 -26 -7 -30 -22z"/>
<path d="M4752 2608 c-7 -7 -12 -20 -12 -30 0 -31 -30 -95 -56 -117 -13 -11 -24 -29 -24 -38 0 -37 14 -44 86 -41 l69 3 3 95 c4 118 -1 140 -31 140 -13 0 -28 -5 -35 -12z"/>
<path d="M4034 2555 c-22 -47 -67 -83 -121 -98 -41 -11 -44 -14 -41 -42 l3 -30 110 0 110 0 3 103 3 102 -25 0 c-19 0 -29 -9 -42 -35z"/>
<path d="M470 2774 c0 -7 5 -58 10 -115 20 -198 87 -386 180 -507 22 -29 40 -57 40 -62 0 -15 -128 -12 -216 5 -131 25 -267 102 -311 175 -27 47 -33 35 -13 -29 54 -181 179 -316 359 -392 100 -42 203 -66 466 -109 438 -72 573 -124 711 -273 62 -67 140 -214 131 -248 -3 -10 -1 -17 4 -13 5 3 9 -6 9 -19 0 -13 3 -27 6 -30 4 -4 50 58 103 136 53 78 129 190 169 248 l72 107 -30 83 c-113 307 -284 408 -830 494 -310 49 -453 89 -568 159 -128 78 -203 169 -259 316 -18 47 -32 80 -33 74z"/>
<path d="M7552 2730 c-47 -155 -168 -298 -313 -369 -135 -66 -242 -92 -619 -151 -416 -65 -616 -185 -716 -428 -13 -31 -27 -56 -31 -55 -5 1 -8 -21 -8 -48 0 -47 7 -59 160 -284 88 -129 163 -235 166 -235 4 0 9 10 12 22 5 19 8 20 23 7 17 -13 17 -13 0 12 -16 26 -16 29 8 87 55 137 150 240 283 310 126 66 234 92 633 157 91 15 203 38 250 51 234 67 389 194 464 380 45 114 43 119 -27 50 -98 -99 -212 -143 -394 -153 -57 -3 -103 -3 -103 0 0 3 26 45 58 94 69 103 105 182 132 290 36 139 55 375 22 263z"/>
<path d="M3396 925 c-3 -8 -12 -15 -20 -15 -22 0 -46 -40 -46 -76 0 -38 38 -74 77 -74 53 0 89 71 62 121 -8 15 -7 25 2 37 11 14 11 15 -1 5 -18 -17 -35 -16 -53 2 -13 13 -16 13 -21 0z"/>
<path d="M4610 917 c-51 -19 -65 -93 -25 -132 40 -41 106 -26 124 28 21 58 -44 126 -99 104z"/>
<path d="M3812 760 c-67 -41 -75 -126 -16 -181 20 -19 36 -24 73 -23 44 0 52 5 94 49 52 54 53 55 34 55 -8 0 -19 22 -27 50 -7 27 -17 47 -21 44 -5 -3 -22 2 -38 11 -40 20 -59 19 -99 -5z"/>
<path d="M4082 765 c2 -30 -24 -105 -36 -105 -6 0 3 -13 20 -28 17 -16 39 -40 49 -55 44 -67 175 -4 175 83 0 40 -31 88 -67 105 -35 17 -58 15 -120 -11 -6 -3 -14 3 -17 13 -4 15 -5 15 -4 -2z"/>
</g>
<g id="layer107" fill="#969696" stroke="none">
<path d="M5510 6477 c0 -2 15 -16 33 -33 l32 -29 -29 33 c-28 30 -36 37 -36 29z"/>
<path d="M2405 6358 l-100 -103 103 100 c56 55 102 101 102 102 0 8 -12 -4 -105 -99z"/>
<path d="M3370 6248 c-55 -28 -99 -56 -97 -61 5 -16 149 -76 183 -77 17 0 52 11 77 24 25 14 48 22 51 19 3 -4 6 -1 6 5 0 7 3 11 8 10 8 -2 93 21 105 29 5 3 -24 27 -65 54 -101 67 -132 67 -268 -3z"/>
<path d="M3128 6101 c-40 -27 -88 -63 -107 -78 l-34 -29 80 -22 c117 -32 100 -36 267 61 l80 47 -76 35 c-42 19 -90 35 -107 35 -19 0 -56 -18 -103 -49z"/>
<path d="M4725 6137 c-95 -40 -115 -50 -115 -57 0 -7 26 -22 42 -24 4 -1 13 -7 20 -13 6 -7 17 -13 24 -13 7 0 14 -3 16 -7 7 -17 92 -65 123 -70 18 -3 55 2 81 10 27 8 62 18 78 22 27 6 27 7 12 24 -9 10 -52 44 -96 76 -86 62 -132 74 -185 52z"/>
<path d="M3363 6022 c-22 -15 -64 -39 -92 -54 -68 -37 -83 -68 -79 -168 l3 -80 89 60 c49 32 94 67 100 77 11 20 35 135 36 171 0 28 -6 28 -57 -6z"/>
<path d="M2720 5716 c-25 -14 -132 -154 -146 -189 -5 -14 0 -17 37 -17 94 1 131 15 177 67 24 26 62 67 84 91 23 23 38 45 35 49 -15 14 -162 14 -187 -1z"/>
<path d="M2593 5480 c-57 -13 -78 -36 -131 -141 -28 -56 -50 -104 -48 -106 7 -7 128 26 151 41 22 14 85 97 85 111 0 3 8 14 18 25 9 10 25 32 35 49 l18 31 -48 -1 c-26 -1 -63 -4 -80 -9z"/>
<path d="M5300 5483 c0 -7 51 -85 61 -93 4 -3 15 -23 27 -45 11 -22 29 -48 41 -59 20 -18 159 -61 168 -52 8 8 -86 188 -111 214 -13 13 -40 27 -62 32 -46 11 -124 13 -124 3z"/>
<path d="M5497 5128 c25 -57 53 -111 62 -122 16 -18 141 -80 148 -72 8 7 -58 194 -80 227 -17 25 -36 38 -77 51 -105 32 -105 32 -53 -84z"/>
<path d="M5425 5205 c-5 -11 -16 -42 -27 -68 -10 -26 -18 -64 -18 -85 0 -32 57 -202 73 -218 3 -3 19 21 36 55 47 93 44 124 -30 281 -23 47 -28 52 -34 35z"/>
<path d="M2372 4928 c-55 -25 -66 -35 -82 -71 -18 -41 -54 -226 -46 -234 2 -3 31 14 64 36 62 43 68 52 97 156 9 33 21 72 27 87 19 52 8 57 -60 26z"/>
<path d="M5570 4948 c0 -2 7 -25 16 -53 8 -27 17 -57 19 -65 2 -8 8 -34 13 -58 6 -24 18 -53 29 -64 21 -24 116 -88 121 -83 8 8 -30 202 -46 235 -11 23 -34 44 -67 62 -41 23 -85 36 -85 26z"/>
<path d="M2439 4868 c-12 -40 -23 -98 -26 -128 -4 -51 -2 -59 37 -118 23 -35 43 -62 45 -60 7 7 45 192 45 218 0 26 -53 145 -70 155 -5 3 -19 -27 -31 -67z"/>
<path d="M5505 4868 c-19 -40 -35 -82 -34 -93 0 -11 10 -64 23 -118 l22 -98 20 23 c41 46 67 100 67 141 1 50 -41 217 -55 217 -5 0 -24 -32 -43 -72z"/>
<path d="M5640 4653 c0 -10 7 -49 15 -88 8 -38 15 -85 15 -103 0 -43 19 -78 68 -126 39 -37 40 -38 47 -15 9 27 -2 192 -16 236 -6 20 -28 44 -57 66 -70 50 -72 50 -72 30z"/>
<path d="M2308 4627 c-66 -50 -78 -82 -78 -217 l0 -114 50 49 c55 54 66 79 75 175 3 36 8 82 11 103 7 46 -2 47 -58 4z"/>
<path d="M2385 4629 c-16 -94 -22 -183 -14 -212 8 -32 93 -136 103 -127 2 3 6 57 8 121 l3 115 -40 60 c-54 82 -53 81 -60 43z"/>
<path d="M5572 4592 c-40 -63 -42 -69 -41 -141 0 -42 4 -97 7 -124 l7 -47 43 49 c66 77 67 87 46 269 -4 29 -9 54 -13 56 -4 3 -26 -25 -49 -62z"/>
<path d="M2286 4314 c-44 -53 -46 -59 -46 -118 0 -57 15 -174 25 -205 6 -17 33 15 65 78 20 40 21 53 16 168 -2 69 -7 127 -9 129 -2 3 -25 -21 -51 -52z"/>
<path d="M5594 4301 c-47 -54 -53 -67 -58 -121 -3 -33 -9 -88 -12 -122 l-6 -61 50 43 c69 58 84 98 80 224 l-3 98 -51 -61z"/>
<path d="M2321 4009 c-22 -38 -31 -67 -31 -99 0 -43 52 -226 69 -243 12 -12 54 137 48 169 -4 16 -9 45 -12 64 -4 19 -9 42 -12 50 -3 8 -7 33 -9 55 -7 62 -19 63 -53 4z"/>
<path d="M2385 4023 c5 -31 14 -75 20 -103 23 -101 34 -120 94 -164 57 -42 66 -44 57 -13 -4 12 -18 65 -32 117 -23 87 -29 99 -77 148 -28 28 -55 52 -60 52 -4 0 -5 -17 -2 -37z"/>
<path d="M5572 4012 c-53 -46 -54 -49 -86 -167 -18 -66 -32 -122 -30 -124 6 -7 97 64 117 90 17 24 29 65 43 154 3 17 9 45 14 63 5 17 5 32 2 32 -4 0 -31 -22 -60 -48z"/>
<path d="M2428 3748 c-9 -7 -24 -36 -33 -64 -21 -65 -12 -100 58 -239 l51 -100 7 45 c12 71 9 122 -7 165 -35 90 -64 180 -61 190 2 5 12 -15 22 -45 49 -151 83 -199 174 -245 41 -21 42 -24 -21 119 -38 88 -49 104 -98 143 -60 47 -68 49 -92 31z"/>
<path d="M5506 3725 c-27 -19 -55 -43 -62 -53 -11 -15 -65 -134 -101 -220 -4 -9 15 -3 47 13 53 27 110 79 110 101 0 6 8 29 17 50 9 22 18 48 20 58 2 11 7 24 12 30 11 15 21 56 13 56 -4 0 -29 -16 -56 -35z"/>
<path d="M5574 3735 c-5 -17 -9 -32 -9 -35 -2 -6 -12 -34 -32 -85 -42 -109 -43 -114 -36 -191 7 -90 10 -88 73 36 58 114 66 149 50 215 -7 31 -19 63 -26 73 -11 15 -13 14 -20 -13z"/>
<path d="M3253 1233 c9 -2 25 -2 35 0 9 3 1 5 -18 5 -19 0 -27 -2 -17 -5z"/>
<path d="M4753 1233 c9 -2 25 -2 35 0 9 3 1 5 -18 5 -19 0 -27 -2 -17 -5z"/>
<path d="M4623 1030 c0 -30 2 -43 4 -27 2 15 2 39 0 55 -2 15 -4 2 -4 -28z"/>
<path d="M4730 1021 c0 -5 8 -15 18 -22 15 -13 16 -12 4 3 -11 14 -10 17 5 21 14 4 13 5 -4 6 -13 0 -23 -3 -23 -8z"/>
<path d="M4510 987 c0 -2 15 -16 33 -33 l32 -29 -29 33 c-28 30 -36 37 -36 29z"/>
<path d="M2805 928 l-50 -53 53 50 c28 27 52 51 52 52 0 8 -9 -1 -55 -49z"/>
<path d="M5200 957 c0 -2 15 -16 33 -33 l32 -29 -29 33 c-28 30 -36 37 -36 29z"/>
<path d="M6314 882 c4 -7 2 -20 -5 -28 -11 -13 10 -37 137 -162 l149 -147 -144 147 c-126 128 -143 149 -131 163 11 13 11 18 0 28 -10 9 -11 9 -6 -1z"/>
<path d="M4081 768 c-1 -22 18 -33 32 -19 9 9 8 11 -5 6 -11 -4 -18 0 -21 12 -4 15 -5 16 -6 1z"/>
<path d="M3975 649 c-4 -6 -5 -12 -2 -15 7 -7 37 7 37 17 0 13 -27 11 -35 -2z"/>
</g>
<g id="layer108" fill="#66add0" stroke="none">
<path d="M3510 5167 c-15 -7 -37 -37 -56 -77 -54 -110 -56 -102 41 -133 177 -58 395 -180 508 -286 26 -24 51 -41 55 -37 16 16 10 240 -8 314 -24 99 -42 121 -131 155 -172 66 -349 94 -409 64z"/>
<path d="M4076 4494 c-38 -38 -36 -95 3 -135 59 -58 147 -26 158 58 5 37 2 45 -25 73 -41 40 -97 42 -136 4z m117 -22 c22 -19 22 -70 0 -94 -20 -22 -70 -23 -95 -1 -18 16 -24 68 -10 89 23 34 69 37 105 6z"/>
<path d="M471 2751 c-1 -24 2 -32 9 -25 7 7 7 19 1 35 -9 23 -10 22 -10 -10z"/>
<path d="M7557 2751 c-2 -11 -1 -35 3 -53 7 -30 8 -28 9 20 1 54 -3 66 -12 33z"/>
<path d="M483 2650 c0 -25 2 -35 4 -22 2 12 2 32 0 45 -2 12 -4 2 -4 -23z"/>
<path d="M7512 2635 c-12 -25 -20 -45 -17 -45 7 0 47 81 43 86 -3 2 -14 -17 -26 -41z"/>
<path d="M7553 2620 c0 -25 2 -35 4 -22 2 12 2 32 0 45 -2 12 -4 2 -4 -23z"/>
<path d="M491 2574 c1 -16 5 -40 9 -54 6 -17 7 -9 3 25 -6 56 -14 74 -12 29z"/>
<path d="M557 2569 c10 -17 24 -36 32 -42 8 -7 2 7 -14 31 -32 49 -45 57 -18 11z"/>
<path d="M7380 2458 c-36 -34 -51 -52 -35 -41 29 21 114 103 105 103 -3 -1 -34 -29 -70 -62z"/>
<path d="M7522 2468 c-7 -28 -11 -53 -8 -55 2 -2 9 19 16 47 7 28 10 53 8 55 -3 3 -10 -18 -16 -47z"/>
<path d="M651 2458 c31 -29 75 -64 98 -76 55 -31 53 -21 -2 11 -24 14 -68 47 -98 72 l-54 47 56 -54z"/>
<path d="M521 2440 c0 -8 4 -24 9 -35 5 -13 9 -14 9 -5 0 8 -4 24 -9 35 -5 13 -9 14 -9 5z"/>
<path d="M7482 2345 c-17 -37 -14 -45 4 -12 9 16 14 31 11 33 -2 2 -9 -7 -15 -21z"/>
<path d="M560 2326 c0 -11 50 -106 55 -106 3 0 -7 24 -21 53 -28 55 -34 65 -34 53z"/>
<path d="M147 2282 c2 -10 10 -19 18 -19 10 0 11 4 2 19 -7 10 -15 18 -18 18 -4 0 -5 -8 -2 -18z"/>
<path d="M7834 2227 l-39 -42 41 38 c30 27 43 35 47 25 4 -8 6 -9 6 -1 2 27 -18 20 -55 -20z"/>
<path d="M300 2155 c0 -7 61 -37 66 -33 2 3 -12 12 -31 21 -19 9 -35 15 -35 12z"/>
<path d="M305 1990 c27 -27 51 -50 54 -50 3 0 -17 23 -44 50 -27 28 -51 50 -54 50 -3 0 17 -22 44 -50z"/>
<path d="M6054 1998 l-29 -33 33 29 c17 17 32 31 32 33 0 8 -8 1 -36 -29z"/>
<path d="M1675 1490 c27 -27 51 -50 54 -50 3 0 -17 23 -44 50 -27 28 -51 50 -54 50 -3 0 17 -22 44 -50z"/>
<path d="M6355 1488 l-40 -43 43 40 c39 36 47 45 39 45 -2 0 -21 -19 -42 -42z"/>
<path d="M4666 901 c18 -11 34 -25 37 -33 3 -8 6 -9 6 -1 1 13 -46 53 -63 53 -6 0 3 -9 20 -19z"/>
<path d="M4573 883 c-7 -15 -13 -38 -13 -50 0 -34 43 -73 77 -72 26 1 26 2 -7 9 -18 5 -40 16 -47 26 -16 22 -17 66 -2 81 6 6 10 16 8 22 -2 6 -10 -2 -16 -16z"/>
<path d="M3467 855 c7 -49 13 -58 13 -19 0 16 -5 36 -10 44 -6 10 -7 2 -3 -25z"/>
<path d="M3331 819 c-1 -9 9 -24 22 -35 22 -19 22 -19 6 1 -9 11 -19 27 -22 35 -5 13 -6 13 -6 -1z"/>
<path d="M3833 772 c-6 -4 8 -7 32 -7 24 0 38 3 32 7 -7 4 -21 8 -32 8 -11 0 -25 -4 -32 -8z"/>
<path d="M4282 660 c0 -19 2 -27 5 -17 2 9 2 25 0 35 -3 9 -5 1 -5 -18z"/>
<path d="M3975 649 c-12 -19 5 -23 22 -6 16 16 16 17 1 17 -9 0 -20 -5 -23 -11z"/>
<path d="M4130 558 c0 -10 71 -10 87 0 6 4 -11 7 -38 7 -27 0 -49 -3 -49 -7z"/>
</g>
<g id="layer109" fill="#a5d3e8" stroke="none">
<path d="M4076 4494 c-38 -38 -36 -95 3 -135 59 -58 147 -26 158 58 5 37 2 45 -25 73 -41 40 -97 42 -136 4z m117 -22 c22 -19 22 -70 0 -94 -34 -38 -107 -15 -114 37 -10 69 60 104 114 57z"/>
<path d="M470 2748 c0 -23 3 -29 9 -19 8 12 4 51 -5 51 -2 0 -4 -15 -4 -32z"/>
<path d="M7558 2753 c-2 -10 -1 -34 3 -53 6 -31 6 -30 8 18 1 52 -3 67 -11 35z"/>
<path d="M7394 2468 l-29 -33 33 29 c17 17 32 31 32 33 0 8 -8 1 -36 -29z"/>
<path d="M1675 1490 c21 -22 41 -40 44 -40 3 0 -13 18 -34 40 -21 22 -41 40 -44 40 -3 0 13 -18 34 -40z"/>
<path d="M3976 645 c-3 -8 -2 -15 3 -15 5 0 14 7 21 15 10 12 10 15 -3 15 -8 0 -17 -7 -21 -15z"/>
<path d="M4148 553 c12 -2 32 -2 45 0 12 2 2 4 -23 4 -25 0 -35 -2 -22 -4z"/>
</g>
<g id="layer110" fill="#c8c8c8" stroke="none">
<path d="M2474 6428 l-29 -33 33 29 c30 28 37 36 29 36 -2 0 -16 -15 -33 -32z"/>
<path d="M3370 6248 c-55 -28 -99 -56 -97 -61 5 -16 150 -76 183 -77 17 0 55 13 85 29 30 16 59 29 64 30 20 3 90 23 98 28 5 3 -24 27 -65 54 -101 67 -132 67 -268 -3z"/>
<path d="M4300 6163 c0 -32 54 -173 72 -190 21 -18 208 -107 213 -101 8 9 -25 161 -39 182 -17 27 -65 55 -129 76 -22 7 -51 18 -65 26 -29 15 -52 18 -52 7z"/>
<path d="M3073 5826 c-45 -36 -88 -76 -95 -89 -13 -24 -15 -110 -4 -171 l7 -38 72 68 c99 94 109 113 105 214 l-3 83 -82 -67z"/>
<path d="M2852 5609 c-39 -44 -75 -91 -78 -105 -5 -21 19 -171 30 -181 4 -4 104 123 128 163 18 30 20 46 15 105 -9 109 -12 109 -95 18z"/>
<path d="M5074 5616 c-5 -40 -7 -86 -3 -103 5 -26 117 -180 135 -186 9 -3 32 106 33 154 1 22 -8 46 -21 65 -38 50 -121 144 -128 144 -4 0 -11 -33 -16 -74z"/>
<path d="M2593 5480 c-57 -13 -78 -36 -131 -141 -28 -56 -50 -104 -48 -106 7 -7 128 26 151 41 23 15 85 97 85 112 0 4 8 17 19 28 10 12 26 33 36 49 l17 27 -48 -1 c-27 -1 -64 -4 -81 -9z"/>
<path d="M2676 5381 c-66 -105 -73 -131 -52 -197 39 -117 32 -116 92 -12 60 104 65 135 39 234 -8 31 -16 59 -18 61 -2 2 -30 -37 -61 -86z"/>
<path d="M5424 5205 c-4 -11 -15 -42 -26 -68 -10 -26 -18 -64 -18 -85 0 -32 57 -202 73 -218 3 -3 19 21 36 55 39 76 40 128 6 202 -66 142 -62 136 -71 114z"/>
<path d="M2372 4928 c-55 -25 -66 -35 -82 -71 -18 -41 -54 -226 -46 -234 2 -3 31 14 63 36 55 37 83 73 83 104 0 7 11 48 26 91 14 43 24 83 22 90 -2 9 -22 4 -66 -16z"/>
<path d="M5570 4947 c0 -2 9 -30 20 -63 10 -33 22 -79 26 -102 4 -24 15 -54 26 -67 20 -25 120 -97 126 -90 8 8 -30 202 -46 235 -11 23 -34 44 -67 62 -43 24 -85 36 -85 25z"/>
<path d="M2446 4888 c-48 -173 -48 -185 5 -267 22 -34 42 -61 44 -59 7 7 45 192 45 218 0 26 -53 145 -70 155 -5 3 -16 -18 -24 -47z"/>
<path d="M5505 4868 c-19 -40 -35 -82 -34 -93 0 -11 10 -64 23 -118 l22 -98 20 23 c41 46 67 100 67 141 1 49 -42 217 -55 217 -5 0 -24 -32 -43 -72z"/>
<path d="M6345 3560 c0 -641 1 -903 2 -583 2 321 2 845 0 1165 -1 321 -2 59 -2 -582z"/>
<path d="M5640 4653 c1 -10 7 -47 15 -83 8 -36 14 -82 15 -103 0 -48 18 -82 68 -131 39 -37 40 -38 47 -15 9 27 -2 192 -16 236 -6 20 -28 44 -57 66 -70 50 -72 50 -72 30z"/>
<path d="M2308 4627 c-66 -50 -78 -82 -78 -217 l0 -114 50 49 c56 55 66 79 75 180 3 39 9 85 12 103 7 41 -4 41 -59 -1z"/>
<path d="M2390 4660 c0 -3 -7 -52 -14 -109 -9 -65 -11 -115 -5 -135 9 -31 94 -135 103 -126 2 3 6 57 8 121 l3 115 -40 60 c-43 65 -55 80 -55 74z"/>
<path d="M5572 4592 c-40 -63 -42 -69 -41 -141 0 -42 4 -97 7 -124 l7 -47 43 49 c51 61 64 91 58 145 -3 22 -8 71 -12 109 -3 37 -9 69 -13 71 -4 3 -26 -25 -49 -62z"/>
<path d="M2286 4314 c-44 -53 -46 -59 -46 -118 0 -57 15 -174 25 -205 6 -17 33 15 65 78 21 41 22 52 15 170 -4 69 -8 127 -10 129 -1 1 -23 -23 -49 -54z"/>
<path d="M2366 4263 c5 -145 8 -152 69 -213 30 -30 56 -52 58 -49 4 3 -1 56 -19 208 -5 35 -14 52 -50 86 -24 24 -44 48 -44 54 0 6 -4 11 -9 11 -4 0 -7 -44 -5 -97z"/>
<path d="M5593 4300 c-46 -53 -52 -66 -57 -120 -3 -33 -9 -88 -12 -121 l-6 -62 47 39 c67 55 82 94 84 220 1 57 0 104 -2 104 -2 0 -27 -27 -54 -60z"/>
<path d="M2321 4009 c-22 -38 -31 -67 -31 -99 0 -43 52 -226 69 -243 4 -4 18 26 31 66 23 74 23 84 0 177 -6 25 -13 65 -16 90 -3 25 -9 49 -14 54 -5 4 -22 -16 -39 -45z"/>
<path d="M2384 4033 c3 -16 9 -46 13 -68 25 -139 36 -161 102 -209 57 -42 66 -44 57 -13 -4 12 -18 65 -32 117 -23 87 -29 99 -77 148 -28 28 -55 52 -60 52 -5 0 -6 -12 -3 -27z"/>
<path d="M5572 4012 c-53 -46 -54 -49 -86 -167 -18 -66 -32 -122 -30 -124 6 -7 97 63 116 89 17 24 71 250 58 250 -3 0 -29 -22 -58 -48z"/>
<path d="M5646 4028 c-4 -18 -9 -50 -12 -71 -3 -21 -9 -49 -14 -63 -20 -52 -1 -192 30 -227 7 -9 67 166 77 226 4 28 -1 49 -22 92 -38 75 -51 84 -59 43z"/>
<path d="M2428 3748 c-9 -7 -24 -36 -33 -64 -21 -65 -12 -100 58 -239 l51 -100 7 45 c12 71 9 122 -7 165 -39 101 -64 179 -61 189 2 6 12 -14 22 -44 49 -151 83 -199 174 -245 41 -21 42 -24 -21 119 -38 88 -49 104 -98 143 -60 47 -68 49 -92 31z"/>
<path d="M5506 3725 c-27 -19 -55 -43 -62 -53 -11 -15 -66 -137 -101 -221 -10 -23 112 48 133 77 11 15 30 59 43 97 13 39 27 75 31 80 11 15 19 55 12 55 -4 0 -29 -16 -56 -35z"/>
<path d="M5575 3735 c-4 -17 -9 -37 -12 -45 -3 -8 -14 -35 -23 -60 -50 -128 -50 -128 -43 -206 7 -90 10 -88 73 36 58 114 66 149 50 215 -7 31 -19 63 -26 73 -11 15 -13 14 -19 -13z"/>
<path d="M4623 1030 c0 -25 2 -35 4 -22 2 12 2 32 0 45 -2 12 -4 2 -4 -23z"/>
<path d="M2805 928 l-40 -43 43 40 c23 21 42 40 42 42 0 8 -9 0 -45 -39z"/>
<path d="M4990 967 c0 -2 15 -16 33 -33 l32 -29 -29 33 c-28 30 -36 37 -36 29z"/>
<path d="M3158 953 c12 -2 30 -2 40 0 9 3 -1 5 -23 4 -22 0 -30 -2 -17 -4z"/>
<path d="M4848 953 c12 -2 30 -2 40 0 9 3 -1 5 -23 4 -22 0 -30 -2 -17 -4z"/>
<path d="M5344 832 c5 -8 -6 -13 -36 -14 l-43 -1 39 -4 c41 -5 67 9 45 22 -8 5 -10 4 -5 -3z"/>
<path d="M1685 778 l-50 -53 53 50 c48 46 57 55 49 55 -1 0 -25 -24 -52 -52z"/>
<path d="M2708 813 c12 -2 32 -2 45 0 12 2 2 4 -23 4 -25 0 -35 -2 -22 -4z"/>
</g>
<g id="layer111" fill="#fcfdfd" stroke="none">
<path d="M3370 6248 c-55 -28 -99 -56 -97 -61 5 -16 150 -76 183 -77 17 0 55 13 85 29 30 15 70 32 89 36 91 20 91 21 9 75 -102 68 -133 68 -269 -2z"/>
<path d="M4412 6275 c-60 -34 -102 -65 -102 -74 0 -5 21 -14 47 -20 26 -7 72 -24 103 -39 76 -36 127 -34 219 8 86 39 87 36 -51 106 -104 52 -151 57 -216 19z"/>
<path d="M3590 6129 c-118 -48 -134 -67 -150 -171 -7 -43 -10 -81 -8 -83 9 -9 193 83 215 107 19 21 63 141 63 174 0 20 -13 17 -120 -27z"/>
<path d="M4300 6163 c0 -32 54 -173 72 -190 21 -19 208 -107 214 -101 1 2 -1 23 -6 48 -5 25 -11 60 -13 78 -10 64 -50 99 -150 132 -22 7 -51 18 -65 26 -29 15 -52 18 -52 7z"/>
<path d="M3128 6101 c-40 -27 -88 -63 -107 -78 l-34 -29 86 -23 c100 -27 118 -25 202 29 33 21 78 47 100 58 l40 21 -77 35 c-42 20 -90 36 -107 36 -19 0 -56 -18 -103 -49z"/>
<path d="M4725 6137 c-95 -40 -115 -50 -115 -57 0 -7 26 -22 42 -24 4 -1 13 -7 20 -13 6 -7 16 -13 20 -13 4 0 30 -16 57 -36 61 -43 104 -51 167 -31 27 8 62 18 78 22 27 6 27 7 12 24 -9 10 -52 44 -96 76 -86 62 -132 74 -185 52z"/>
<path d="M3363 6022 c-22 -15 -64 -39 -92 -54 -68 -37 -83 -68 -79 -168 l3 -80 90 60 c93 62 109 81 118 140 3 19 9 56 13 83 4 26 3 47 -2 47 -5 0 -28 -13 -51 -28z"/>
<path d="M4594 6018 c3 -18 10 -59 15 -92 5 -32 18 -67 28 -78 20 -23 175 -128 188 -128 4 0 5 39 1 88 -8 105 -20 125 -102 169 -32 17 -64 35 -70 41 -13 12 -51 32 -59 32 -4 0 -5 -15 -1 -32z"/>
<path d="M2944 5946 c-29 -13 -184 -162 -184 -177 0 -3 35 -9 78 -13 92 -8 119 0 176 52 23 21 60 51 83 67 24 17 43 33 43 37 0 8 -82 34 -133 43 -18 3 -46 -1 -63 -9z"/>
<path d="M4995 5955 c-5 -2 -36 -11 -67 -20 -32 -9 -58 -20 -58 -24 0 -3 15 -15 33 -25 17 -11 55 -41 84 -68 29 -26 64 -53 79 -59 33 -12 184 -1 184 13 0 12 -115 133 -150 158 -26 18 -86 33 -105 25z"/>
<path d="M3071 5825 c-44 -36 -86 -75 -93 -88 -13 -24 -15 -110 -4 -171 l7 -38 72 68 c99 94 106 108 105 210 -1 46 -3 84 -4 84 -1 0 -38 -29 -83 -65z"/>
<path d="M4853 5823 c-2 -110 8 -133 94 -212 42 -39 80 -71 85 -71 4 0 9 26 10 58 5 122 3 131 -33 168 -31 33 -143 124 -151 124 -3 0 -5 -30 -5 -67z"/>
<path d="M2720 5716 c-25 -14 -132 -154 -146 -189 -5 -14 0 -17 37 -17 88 1 131 16 167 57 19 21 57 62 85 91 28 28 47 55 44 59 -15 14 -162 14 -187 -1z"/>
<path d="M5123 5723 c-29 -5 -29 -19 -3 -35 12 -7 47 -45 80 -85 55 -66 63 -72 114 -83 30 -6 73 -10 96 -8 l41 3 -57 83 c-81 119 -100 132 -182 131 -37 -1 -77 -4 -89 -6z"/>
<path d="M2852 5609 c-39 -44 -75 -91 -78 -105 -5 -21 19 -171 30 -181 4 -4 101 119 126 159 21 34 29 138 11 138 -6 0 -8 10 -6 21 11 56 -11 47 -83 -32z"/>
<path d="M5074 5616 c-5 -40 -7 -86 -3 -103 5 -26 117 -180 135 -186 9 -3 33 106 33 154 1 35 -18 70 -59 109 -9 8 -30 34 -49 58 -18 23 -36 42 -40 42 -4 0 -12 -33 -17 -74z"/>
<path d="M3530 5587 c0 -53 23 -133 45 -157 42 -46 74 -105 88 -159 l14 -55 94 -27 c164 -47 238 -79 266 -114 23 -29 30 -32 67 -28 26 3 73 -5 129 -21 48 -14 92 -26 99 -26 15 0 145 107 158 130 9 17 5 20 -48 30 -158 31 -413 129 -567 217 -81 47 -253 162 -312 209 l-33 27 0 -26z"/>
<path d="M2593 5480 c-57 -13 -78 -36 -131 -141 -28 -56 -50 -104 -48 -106 7 -7 128 26 152 42 14 9 38 37 54 63 16 26 42 65 58 87 48 66 48 65 -5 64 -26 -1 -63 -4 -80 -9z"/>
<path d="M5300 5481 c0 -4 15 -28 34 -52 18 -24 42 -62 53 -84 12 -22 30 -48 42 -59 20 -18 159 -61 168 -52 8 8 -86 188 -111 214 -13 13 -40 27 -62 32 -50 12 -124 13 -124 1z"/>
<path d="M2676 5381 c-66 -105 -73 -131 -52 -197 39 -117 32 -116 92 -12 56 98 67 152 44 213 -5 14 -12 37 -14 51 -3 15 -7 28 -9 30 -2 3 -30 -36 -61 -85z"/>
<path d="M5257 5397 c-9 -40 -17 -84 -17 -96 0 -26 96 -211 109 -211 13 0 43 89 48 143 5 44 1 54 -48 130 -77 120 -72 118 -92 34z"/>
<path d="M2477 5216 c-72 -20 -100 -53 -136 -161 -43 -129 -43 -129 27 -99 73 33 106 64 121 117 7 23 26 66 42 94 16 29 29 55 29 58 0 8 -31 5 -83 -9z"/>
<path d="M5475 5180 c14 -27 34 -73 46 -102 11 -29 28 -61 37 -72 17 -18 142 -79 149 -72 8 7 -58 194 -80 227 -17 25 -36 38 -77 51 -30 9 -65 17 -78 17 l-22 1 25 -50z"/>
<path d="M5424 5205 c-4 -11 -15 -42 -26 -68 -10 -26 -18 -64 -18 -85 0 -32 57 -202 73 -218 3 -3 19 21 36 55 22 43 31 74 31 111 0 27 -4 50 -10 50 -5 0 -10 8 -10 18 0 10 -7 28 -16 40 -8 12 -17 31 -19 41 -2 11 -10 32 -19 48 -13 26 -15 27 -22 8z"/>
<path d="M2532 5112 c-23 -54 -42 -110 -42 -125 0 -25 58 -157 70 -157 7 0 80 202 80 223 0 21 -52 157 -60 157 -3 0 -24 -44 -48 -98z"/>
<path d="M3510 5167 c-15 -7 -37 -37 -56 -77 -54 -110 -56 -102 41 -133 177 -58 395 -180 508 -286 26 -24 51 -41 55 -37 13 13 8 248 -7 314 -21 95 -43 121 -131 155 -173 66 -349 94 -410 64z"/>
<path d="M4085 4979 c4 -19 9 -114 11 -212 1 -99 5 -185 7 -192 3 -7 27 -15 53 -18 91 -10 146 -105 108 -184 -26 -52 -75 -83 -134 -83 -41 0 -53 -5 -101 -47 -30 -27 -72 -68 -92 -93 -49 -60 -102 -159 -90 -171 37 -37 245 -73 332 -57 115 21 232 110 290 218 98 184 74 444 -59 627 -41 55 -50 75 -50 109 0 25 -7 50 -17 62 -23 26 -132 63 -207 70 l-59 5 8 -34z"/>
<path d="M2372 4928 c-55 -25 -66 -35 -82 -71 -18 -41 -54 -226 -46 -234 2 -3 31 14 64 36 63 43 72 59 93 151 6 30 18 68 26 83 8 16 13 36 11 46 -3 16 -9 15 -66 -11z"/>
<path d="M3359 4938 c-63 -118 -118 -430 -93 -525 8 -29 14 -29 66 6 92 62 180 75 271 41 l54 -20 49 21 c61 27 164 35 245 20 56 -11 63 -11 72 4 5 10 18 26 28 36 11 11 19 23 19 28 0 16 -138 139 -212 189 -103 69 -237 135 -372 181 -115 40 -116 40 -127 19z"/>
<path d="M5570 4947 c0 -2 9 -29 19 -60 11 -31 23 -77 26 -102 4 -25 16 -56 27 -70 20 -25 120 -97 126 -90 8 8 -30 202 -46 235 -11 23 -34 44 -67 62 -43 24 -85 36 -85 25z"/>
<path d="M2455 4921 c-3 -11 -7 -28 -10 -38 -2 -11 -10 -44 -19 -73 -26 -86 -21 -118 25 -189 22 -34 42 -61 44 -59 7 7 45 192 45 218 0 26 -53 145 -69 155 -5 3 -12 -3 -16 -14z"/>
<path d="M5505 4868 c-19 -40 -35 -82 -34 -93 0 -11 10 -64 23 -118 l22 -98 20 23 c67 75 83 136 56 221 -11 34 -23 79 -27 100 -3 20 -10 37 -16 37 -5 0 -25 -32 -44 -72z"/>
<path d="M5644 4639 c3 -19 11 -70 17 -114 16 -123 17 -123 66 -176 60 -64 68 -53 59 80 -9 130 -18 154 -74 194 -77 55 -76 54 -68 16z"/>
<path d="M2336 4645 c-8 -8 -19 -15 -23 -15 -15 0 -61 -53 -72 -83 -6 -16 -11 -78 -11 -140 l0 -111 46 44 c61 60 66 72 75 170 4 47 11 100 15 118 7 35 -4 42 -30 17z"/>
<path d="M2386 4638 c-3 -13 -6 -41 -6 -63 0 -22 -5 -58 -10 -80 -13 -57 2 -102 54 -160 25 -27 47 -47 50 -45 2 3 6 57 8 121 l3 115 -40 60 c-53 80 -52 78 -59 52z"/>
<path d="M5572 4593 c-40 -64 -42 -70 -41 -142 0 -42 4 -97 7 -124 l7 -47 43 49 c23 27 46 60 51 73 8 22 -8 241 -19 252 -3 3 -25 -25 -48 -61z"/>
<path d="M4076 4494 c-38 -38 -36 -95 3 -135 59 -58 147 -26 158 58 5 37 2 45 -25 73 -41 40 -97 42 -136 4z m115 -21 c30 -26 30 -64 0 -94 -55 -55 -133 1 -108 77 14 42 71 50 108 17z"/>
<path d="M4120 4445 c-10 -12 -11 -21 -4 -33 15 -22 27 -24 49 -8 16 12 18 18 9 33 -15 24 -38 27 -54 8z"/>
<path d="M3798 4449 c-26 -4 -73 -19 -103 -34 -72 -34 -195 -65 -257 -65 -26 0 -48 -4 -48 -10 0 -13 357 -471 367 -470 4 0 17 31 29 68 41 132 125 260 219 334 48 37 52 44 42 61 -30 49 -37 63 -37 78 0 9 -10 20 -22 23 -45 14 -144 21 -190 15z"/>
<path d="M2288 4315 c-46 -55 -48 -60 -48 -119 0 -57 15 -174 25 -205 6 -17 32 15 64 78 21 41 22 50 14 174 l-8 130 -47 -58z"/>
<path d="M5666 4250 c-4 -69 -4 -134 0 -145 10 -29 68 -124 75 -125 15 0 41 212 33 258 -4 20 -25 54 -54 85 l-47 51 -7 -124z"/>
<path d="M2367 4263 c6 -148 7 -153 68 -213 30 -30 56 -52 58 -49 4 3 -1 54 -19 207 -4 34 -14 52 -50 86 -24 24 -44 48 -44 55 0 6 -4 11 -9 11 -4 0 -7 -44 -4 -97z"/>
<path d="M5593 4300 c-46 -53 -52 -66 -57 -120 -3 -33 -9 -88 -12 -121 l-6 -62 47 39 c68 57 78 81 83 212 2 61 2 112 0 112 -3 0 -28 -27 -55 -60z"/>
<path d="M2320 4008 c-21 -38 -30 -66 -30 -98 0 -43 52 -226 69 -243 12 -12 54 137 48 169 -2 16 -12 54 -20 86 -9 31 -17 73 -19 93 -1 20 -6 38 -10 41 -4 3 -21 -19 -38 -48z"/>
<path d="M2380 4056 c0 -23 46 -218 56 -237 12 -25 102 -99 119 -99 4 0 4 10 1 23 -4 12 -18 65 -32 117 -23 87 -29 99 -77 148 -44 45 -67 61 -67 48z"/>
<path d="M5572 4012 c-53 -46 -54 -49 -86 -167 -18 -66 -32 -122 -30 -124 6 -6 96 63 116 89 10 14 21 39 24 55 3 17 13 67 23 113 10 45 15 82 12 82 -3 0 -30 -22 -59 -48z"/>
<path d="M5645 4013 c-4 -26 -13 -71 -21 -100 -8 -28 -14 -71 -14 -95 0 -42 24 -134 40 -151 7 -9 67 166 77 226 4 28 -1 49 -22 92 -42 81 -52 86 -60 28z"/>
<path d="M2428 3748 c-9 -7 -24 -36 -33 -64 -21 -65 -12 -100 58 -239 l51 -100 9 55 c12 76 3 134 -31 210 -27 60 -49 140 -38 140 2 0 18 -38 35 -85 51 -140 69 -164 160 -210 41 -21 42 -24 -21 119 -38 88 -49 104 -98 143 -60 47 -68 49 -92 31z"/>
<path d="M5538 3747 c-7 -7 -30 -23 -50 -35 -25 -15 -45 -40 -62 -75 -33 -69 -86 -189 -86 -194 0 -2 27 10 60 28 49 26 92 66 95 89 1 7 43 120 54 145 24 54 19 71 -11 42z"/>
<path d="M5575 3735 c-4 -17 -18 -59 -32 -95 -53 -137 -53 -137 -46 -216 7 -90 10 -88 73 36 58 114 66 149 50 215 -7 31 -19 63 -26 73 -11 15 -13 14 -19 -13z"/>
</g>


</svg>